<svg width="75" height="75" viewBox="0 0 75 75" fill="none" xmlns="http://www.w3.org/2000/svg">
<path d="M55.9092 17.7273L37.5001 50.4546L19.091 17.7273L55.9092 17.7273Z" fill="white"/>
<path d="M24.604 64.6728C24.604 64.1894 24.4342 63.8079 24.0946 63.5282C23.755 63.2446 23.1338 62.9769 22.2309 62.7252C21.328 62.4695 20.6689 62.1919 20.2534 61.8923C19.6621 61.4688 19.3665 60.9135 19.3665 60.2263C19.3665 59.5592 19.6401 59.0178 20.1875 58.6024C20.7388 58.1829 21.4419 57.9731 22.2968 57.9731C22.8761 57.9731 23.3935 58.085 23.8489 58.3087C24.3083 58.5324 24.6639 58.8441 24.9156 59.2436C25.1673 59.6431 25.2931 60.0885 25.2931 60.5799H24.55C24.55 59.9846 24.3463 59.5072 23.9388 59.1477C23.5313 58.7841 22.984 58.6024 22.2968 58.6024C21.6297 58.6024 21.0983 58.7522 20.7028 59.0518C20.3073 59.3474 20.1096 59.735 20.1096 60.2144C20.1096 60.6578 20.2873 61.0194 20.6429 61.299C20.9984 61.5787 21.5677 61.8263 22.3508 62.0421C23.1338 62.2538 23.7271 62.4755 24.1305 62.7073C24.534 62.935 24.8377 63.2086 25.0414 63.5282C25.2452 63.8478 25.347 64.2254 25.347 64.6608C25.347 65.348 25.0714 65.8993 24.5201 66.3148C23.9727 66.7302 23.2496 66.938 22.3508 66.938C21.7355 66.938 21.1702 66.8281 20.6549 66.6084C20.1435 66.3887 19.754 66.0811 19.4863 65.6855C19.2227 65.29 19.0908 64.8366 19.0908 64.3252H19.8279C19.8279 64.9405 20.0576 65.4259 20.517 65.7814C20.9765 66.137 21.5877 66.3148 22.3508 66.3148C23.0299 66.3148 23.5752 66.165 23.9867 65.8653C24.3982 65.5657 24.604 65.1682 24.604 64.6728Z" fill="white"/>
<path d="M32.8617 58.7222H29.8714V66.8181H29.1343V58.7222H26.15V58.093H32.8617V58.7222Z" fill="white"/>
<path d="M40.5561 62.929C40.5561 63.732 40.4163 64.4371 40.1366 65.0443C39.861 65.6516 39.4655 66.119 38.9501 66.4466C38.4347 66.7742 37.8395 66.938 37.1643 66.938C36.1456 66.938 35.3226 66.5744 34.6954 65.8473C34.0682 65.1163 33.7546 64.1315 33.7546 62.893V61.9941C33.7546 61.1991 33.8944 60.496 34.1741 59.8848C34.4577 59.2695 34.8572 58.7981 35.3726 58.4705C35.8879 58.1389 36.4812 57.9731 37.1523 57.9731C37.8235 57.9731 38.4148 58.1349 38.9261 58.4585C39.4415 58.7821 39.839 59.2396 40.1187 59.8308C40.3983 60.4221 40.5441 61.1072 40.5561 61.8863V62.929ZM39.819 61.9822C39.819 60.9315 39.5813 60.1085 39.1059 59.5132C38.6305 58.918 37.9793 58.6203 37.1523 58.6203C36.3414 58.6203 35.6942 58.92 35.2108 59.5192C34.7314 60.1145 34.4917 60.9474 34.4917 62.0181V62.929C34.4917 63.9637 34.7314 64.7847 35.2108 65.3919C35.6902 65.9952 36.3414 66.2968 37.1643 66.2968C37.9993 66.2968 38.6505 65.9992 39.1179 65.4039C39.5853 64.8046 39.819 63.9717 39.819 62.905V61.9822Z" fill="white"/>
<path d="M45.6737 63.1867H43.1389V66.8181H42.3958V58.093H45.2303C46.1611 58.093 46.8882 58.3187 47.4116 58.7702C47.9349 59.2216 48.1966 59.8528 48.1966 60.6638C48.1966 61.2231 48.0328 61.7165 47.7052 62.144C47.3776 62.5714 46.9382 62.8671 46.3869 63.0309L48.5681 66.7402V66.8181H47.7831L45.6737 63.1867ZM43.1389 62.5574H45.3981C46.0173 62.5574 46.5147 62.3817 46.8902 62.0301C47.2658 61.6785 47.4535 61.2231 47.4535 60.6638C47.4535 60.0486 47.2578 59.5712 46.8663 59.2316C46.4747 58.892 45.9254 58.7222 45.2183 58.7222H43.1389V62.5574Z" fill="white"/>
<path d="M55.0221 62.6353H50.9412V66.1949H55.6333V66.8181H50.2041V58.093H55.6034V58.7222H50.9412V62.0121H55.0221V62.6353Z" fill="white"/>
<rect x="28.6362" y="10.9092" width="6.81818" height="1.36364" transform="rotate(90 28.6362 10.9092)" fill="white"/>
<rect x="47.7271" y="10.9092" width="6.81818" height="1.36364" transform="rotate(90 47.7271 10.9092)" fill="white"/>
<rect x="47.7271" y="12.2727" width="19.0909" height="1.36363" transform="rotate(-180 47.7271 12.2727)" fill="white"/>
<path d="M32.727 28.6364L37.4998 20.4546L42.2725 28.6364L32.727 28.6364Z" fill="black"/>
<path d="M42.273 30.0001L37.5002 38.1819L32.7275 30.0001L42.273 30.0001Z" fill="black"/>
<path d="M35.4545 50.4546L17.0454 17.7273V50.4546H35.4545Z" fill="white"/>
<path d="M39.5455 50.4546L57.9546 17.7273V50.4546H39.5455Z" fill="white"/>
</svg>
