<svg width="75" height="75" viewBox="0 0 75 75" fill="none" xmlns="http://www.w3.org/2000/svg">
<path d="M12.3253 66.8182H11.5823V62.6354H6.59646V66.8182H5.85938V58.093H6.59646V62.0121H11.5823V58.093H12.3253V66.8182Z" fill="white"/>
<path d="M19.3666 64.3732H15.4055L14.5066 66.8182H13.7336L17.0355 58.093H17.7366L21.0385 66.8182H20.2714L19.3666 64.3732ZM15.6332 63.744H19.1329L17.383 58.9919L15.6332 63.744Z" fill="white"/>
<path d="M25.5868 63.1867H23.052V66.8182H22.3089V58.093H25.1434C26.0742 58.093 26.8013 58.3187 27.3247 58.7702C27.848 59.2216 28.1097 59.8528 28.1097 60.6638C28.1097 61.2231 27.9459 61.7165 27.6183 62.144C27.2907 62.5714 26.8513 62.8671 26.2999 63.0309L28.4812 66.7403V66.8182H27.6962L25.5868 63.1867ZM23.052 62.5575H25.3112C25.9304 62.5575 26.4278 62.3817 26.8033 62.0301C27.1788 61.6786 27.3666 61.2231 27.3666 60.6638C27.3666 60.0486 27.1709 59.5712 26.7793 59.2316C26.3878 58.892 25.8385 58.7222 25.1314 58.7222H23.052V62.5575Z" fill="white"/>
<path d="M30.1172 66.8182V58.093H32.5562C33.2713 58.093 33.9125 58.2568 34.4798 58.5844C35.0471 58.908 35.4885 59.3734 35.8041 59.9807C36.1237 60.5879 36.2835 61.2791 36.2835 62.0541V62.8571C36.2835 63.6361 36.1257 64.3273 35.8101 64.9305C35.4945 65.5338 35.0491 65.9992 34.4738 66.3268C33.9025 66.6544 33.2453 66.8182 32.5022 66.8182H30.1172ZM30.8543 58.7222V66.1949H32.5082C33.4271 66.1949 34.1642 65.8913 34.7195 65.2841C35.2748 64.6728 35.5524 63.8479 35.5524 62.8091V62.0421C35.5524 61.0394 35.2788 60.2364 34.7314 59.6331C34.1841 59.0299 33.463 58.7262 32.5681 58.7222H30.8543Z" fill="white"/>
<path d="M39.7712 64.4631L40.0408 65.8174L40.3704 64.523L42.2641 58.093H42.9292L44.7989 64.523L45.1225 65.8294L45.4102 64.4631L46.9862 58.093H47.7413L45.506 66.8182H44.7989L42.8214 59.9927L42.5997 59.1297L42.3839 59.9927L40.3584 66.8182H39.6513L37.4221 58.093H38.1772L39.7712 64.4631Z" fill="white"/>
<path d="M53.608 64.3732H49.6469L48.748 66.8182H47.975L51.2769 58.093H51.978L55.2799 66.8182H54.5128L53.608 64.3732ZM49.8746 63.744H53.3742L51.6244 58.9919L49.8746 63.744Z" fill="white"/>
<path d="M59.8282 63.1867H57.2934V66.8182H56.5503V58.093H59.3848C60.3156 58.093 61.0427 58.3187 61.5661 58.7702C62.0894 59.2216 62.3511 59.8528 62.3511 60.6638C62.3511 61.2231 62.1873 61.7165 61.8597 62.144C61.5321 62.5714 61.0926 62.8671 60.5413 63.0309L62.7226 66.7403V66.8182H61.9376L59.8282 63.1867ZM57.2934 62.5575H59.5526C60.1718 62.5575 60.6692 62.3817 61.0447 62.0301C61.4202 61.6786 61.608 61.2231 61.608 60.6638C61.608 60.0486 61.4122 59.5712 61.0207 59.2316C60.6292 58.892 60.0799 58.7222 59.3728 58.7222H57.2934V62.5575Z" fill="white"/>
<path d="M69.1766 62.6354H65.0957V66.1949H69.7878V66.8182H64.3586V58.093H69.7579V58.7222H65.0957V62.0121H69.1766V62.6354Z" fill="white"/>
<path d="M54.5454 17.7273L36.1363 50.4546L17.7272 17.7273L54.5454 17.7273Z" fill="white"/>
<path d="M31.3638 31.3637L36.1365 23.1819L40.9092 31.3637L31.3638 31.3637Z" fill="black"/>
<rect x="49.0908" y="31.3635" width="10.9091" height="1.36364" fill="white"/>
<rect x="50.4546" y="28.6365" width="6.81818" height="1.36364" fill="white"/>
<rect x="45" y="39.5454" width="2.72727" height="1.36364" fill="white"/>
<rect x="47.7271" y="34.0908" width="8.18182" height="1.36364" fill="white"/>
<path d="M46.3638 36.8181H53.182V38.1818H46.3638V36.8181Z" fill="white"/>
<path d="M54.5456 36.8181L54.5456 49.0908H53.182V36.8181H54.5456Z" fill="white"/>
<rect x="47.7271" y="39.5454" width="9.54545" height="1.36364" transform="rotate(90 47.7271 39.5454)" fill="white"/>
<rect width="2.72727" height="1.36364" transform="matrix(-1 0 0 1 27.2729 39.5454)" fill="white"/>
<rect width="9.54545" height="1.36364" transform="matrix(4.37114e-08 1 1 -4.37114e-08 24.5454 39.5454)" fill="white"/>
<rect x="43.6362" y="42.2727" width="6.81818" height="1.36364" transform="rotate(90 43.6362 42.2727)" fill="white"/>
<rect x="30" y="42.2727" width="6.81818" height="1.36364" transform="rotate(90 30 42.2727)" fill="white"/>
<rect x="57.2729" y="34.0908" width="15" height="1.36364" transform="rotate(90 57.2729 34.0908)" fill="white"/>
<rect x="58.6362" y="17.7273" width="12.2727" height="1.36364" transform="rotate(90 58.6362 17.7273)" fill="white"/>
<rect x="61.3638" y="17.7273" width="15" height="1.36364" transform="rotate(90 61.3638 17.7273)" fill="white"/>
<rect width="10.9091" height="1.36364" transform="matrix(-1 0 0 1 23.1816 31.3635)" fill="white"/>
<rect width="6.81818" height="1.36364" transform="matrix(-1 0 0 1 21.8184 28.6365)" fill="white"/>
<rect width="6.81818" height="1.36364" transform="matrix(-1 0 0 1 25.9092 36.8181)" fill="white"/>
<rect width="8.18182" height="1.36364" transform="matrix(-1 0 0 1 24.5454 34.0908)" fill="white"/>
<rect width="12.2727" height="1.36364" transform="matrix(4.37114e-08 1 1 -4.37114e-08 17.7271 36.8181)" fill="white"/>
<rect width="15" height="1.36364" transform="matrix(4.37114e-08 1 1 -4.37114e-08 15 34.0908)" fill="white"/>
<rect width="12.2727" height="1.36364" transform="matrix(4.37114e-08 1 1 -4.37114e-08 13.6362 17.7273)" fill="white"/>
<rect width="15" height="1.36364" transform="matrix(4.37114e-08 1 1 -4.37114e-08 10.9092 17.7273)" fill="white"/>
</svg>
