<svg width="75" height="75" viewBox="0 0 75 75" fill="none" xmlns="http://www.w3.org/2000/svg">
<path d="M6.3074 63.2646V66.8181H5.57031V58.093H8.54261C9.44949 58.093 10.1646 58.3247 10.6879 58.7881C11.2153 59.2516 11.479 59.8888 11.479 60.6998C11.479 61.5187 11.2253 62.1519 10.7179 62.5994C10.2145 63.0428 9.48344 63.2646 8.52464 63.2646H6.3074ZM6.3074 62.6413H8.54261C9.25772 62.6413 9.80305 62.4715 10.1786 62.132C10.5541 61.7924 10.7419 61.319 10.7419 60.7117C10.7419 60.1085 10.5541 59.6291 10.1786 59.2735C9.80704 58.914 9.2777 58.7302 8.59055 58.7222H6.3074V62.6413Z" fill="white"/>
<path d="M16.3928 63.1867H13.858V66.8181H13.1149V58.093H15.9494C16.8802 58.093 17.6073 58.3187 18.1307 58.7702C18.654 59.2216 18.9157 59.8528 18.9157 60.6638C18.9157 61.2231 18.7519 61.7165 18.4243 62.144C18.0967 62.5714 17.6573 62.8671 17.106 63.0309L19.2872 66.7402V66.8181H18.5022L16.3928 63.1867ZM13.858 62.5574H16.1172C16.7364 62.5574 17.2338 62.3817 17.6093 62.0301C17.9849 61.6785 18.1726 61.2231 18.1726 60.6638C18.1726 60.0486 17.9769 59.5712 17.5854 59.2316C17.1938 58.892 16.6445 58.7222 15.9374 58.7222H13.858V62.5574Z" fill="white"/>
<path d="M27.3712 62.929C27.3712 63.732 27.2314 64.4371 26.9517 65.0443C26.676 65.6516 26.2805 66.119 25.7652 66.4466C25.2498 66.7742 24.6546 66.938 23.9794 66.938C22.9607 66.938 22.1377 66.5744 21.5105 65.8473C20.8833 65.1163 20.5696 64.1315 20.5696 62.893V61.9941C20.5696 61.1991 20.7095 60.496 20.9891 59.8848C21.2728 59.2695 21.6723 58.7981 22.1876 58.4705C22.703 58.1389 23.2963 57.9731 23.9674 57.9731C24.6386 57.9731 25.2298 58.1349 25.7412 58.4585C26.2566 58.7821 26.6541 59.2396 26.9337 59.8308C27.2134 60.4221 27.3592 61.1072 27.3712 61.8863V62.929ZM26.6341 61.9822C26.6341 60.9315 26.3964 60.1085 25.921 59.5132C25.4456 58.918 24.7944 58.6203 23.9674 58.6203C23.1564 58.6203 22.5092 58.92 22.0258 59.5192C21.5464 60.1145 21.3067 60.9474 21.3067 62.0181V62.929C21.3067 63.9637 21.5464 64.7847 22.0258 65.3919C22.5052 65.9952 23.1564 66.2968 23.9794 66.2968C24.8144 66.2968 25.4656 65.9992 25.933 65.4039C26.4004 64.8046 26.6341 63.9717 26.6341 62.905V61.9822Z" fill="white"/>
<path d="M35.4072 64.0975C35.3073 65.0164 34.9777 65.7195 34.4184 66.2069C33.8631 66.6943 33.122 66.938 32.1952 66.938C31.548 66.938 30.9747 66.7762 30.4753 66.4526C29.9799 66.129 29.5964 65.6716 29.3248 65.0803C29.0531 64.485 28.9153 63.8059 28.9113 63.0428V61.9102C28.9113 61.1352 29.0471 60.4481 29.3188 59.8488C29.5904 59.2496 29.9799 58.7881 30.4873 58.4645C30.9987 58.1369 31.5859 57.9731 32.2491 57.9731C33.1839 57.9731 33.921 58.2268 34.4604 58.7342C35.0037 59.2376 35.3193 59.9347 35.4072 60.8256H34.6641C34.4803 59.3434 33.6753 58.6024 32.2491 58.6024C31.4581 58.6024 30.8269 58.898 30.3555 59.4893C29.8881 60.0805 29.6543 60.8975 29.6543 61.9402V63.0069C29.6543 64.0136 29.8821 64.8166 30.3375 65.4159C30.7969 66.0151 31.4161 66.3148 32.1952 66.3148C32.9662 66.3148 33.5475 66.131 33.939 65.7635C34.3305 65.3919 34.5722 64.8366 34.6641 64.0975H35.4072Z" fill="white"/>
<path d="M42.017 62.6353H37.936V66.1949H42.6282V66.8181H37.199V58.093H42.5982V58.7222H37.936V62.0121H42.017V62.6353Z" fill="white"/>
<path d="M49.1241 64.6728C49.1241 64.1894 48.9543 63.8079 48.6147 63.5282C48.2752 63.2446 47.6539 62.9769 46.7511 62.7252C45.8482 62.4695 45.189 62.1919 44.7735 61.8923C44.1823 61.4688 43.8866 60.9135 43.8866 60.2263C43.8866 59.5592 44.1603 59.0178 44.7076 58.6024C45.2589 58.1829 45.962 57.9731 46.817 57.9731C47.3963 57.9731 47.9136 58.085 48.3691 58.3087C48.8285 58.5324 49.184 58.8441 49.4357 59.2436C49.6874 59.6431 49.8133 60.0885 49.8133 60.5799H49.0702C49.0702 59.9846 48.8664 59.5072 48.4589 59.1477C48.0514 58.7841 47.5041 58.6024 46.817 58.6024C46.1498 58.6024 45.6185 58.7522 45.223 59.0518C44.8275 59.3474 44.6297 59.735 44.6297 60.2144C44.6297 60.6578 44.8075 61.0194 45.163 61.299C45.5186 61.5787 46.0879 61.8263 46.8709 62.0421C47.6539 62.2538 48.2472 62.4755 48.6507 62.7073C49.0542 62.935 49.3578 63.2086 49.5616 63.5282C49.7653 63.8478 49.8672 64.2254 49.8672 64.6608C49.8672 65.348 49.5915 65.8993 49.0402 66.3148C48.4929 66.7302 47.7698 66.938 46.8709 66.938C46.2557 66.938 45.6904 66.8281 45.175 66.6084C44.6637 66.3887 44.2741 66.0811 44.0065 65.6855C43.7428 65.29 43.611 64.8366 43.611 64.3252H44.3481C44.3481 64.9405 44.5778 65.4259 45.0372 65.7814C45.4966 66.137 46.1079 66.3148 46.8709 66.3148C47.5501 66.3148 48.0954 66.165 48.5069 65.8653C48.9184 65.5657 49.1241 65.1682 49.1241 64.6728Z" fill="white"/>
<path d="M56.3991 64.6728C56.3991 64.1894 56.2293 63.8079 55.8897 63.5282C55.5501 63.2446 54.9289 62.9769 54.026 62.7252C53.1231 62.4695 52.464 62.1919 52.0485 61.8923C51.4572 61.4688 51.1616 60.9135 51.1616 60.2263C51.1616 59.5592 51.4352 59.0178 51.9826 58.6024C52.5339 58.1829 53.237 57.9731 54.0919 57.9731C54.6712 57.9731 55.1886 58.085 55.644 58.3087C56.1034 58.5324 56.459 58.8441 56.7107 59.2436C56.9624 59.6431 57.0882 60.0885 57.0882 60.5799H56.3451C56.3451 59.9846 56.1414 59.5072 55.7339 59.1477C55.3264 58.7841 54.7791 58.6024 54.0919 58.6024C53.4248 58.6024 52.8934 58.7522 52.4979 59.0518C52.1024 59.3474 51.9047 59.735 51.9047 60.2144C51.9047 60.6578 52.0824 61.0194 52.438 61.299C52.7935 61.5787 53.3628 61.8263 54.1459 62.0421C54.9289 62.2538 55.5222 62.4755 55.9256 62.7073C56.3291 62.935 56.6328 63.2086 56.8365 63.5282C57.0403 63.8478 57.1421 64.2254 57.1421 64.6608C57.1421 65.348 56.8665 65.8993 56.3152 66.3148C55.7678 66.7302 55.0447 66.938 54.1459 66.938C53.5306 66.938 52.9653 66.8281 52.45 66.6084C51.9386 66.3887 51.5491 66.0811 51.2814 65.6855C51.0178 65.29 50.8859 64.8366 50.8859 64.3252H51.623C51.623 64.9405 51.8527 65.4259 52.3121 65.7814C52.7716 66.137 53.3828 66.3148 54.1459 66.3148C54.825 66.3148 55.3703 66.165 55.7818 65.8653C56.1933 65.5657 56.3991 65.1682 56.3991 64.6728Z" fill="white"/>
<path d="M63.5542 62.6353H59.4732V66.1949H64.1654V66.8181H58.7362V58.093H64.1354V58.7222H59.4732V62.0121H63.5542V62.6353Z" fill="white"/>
<path d="M70.6613 64.6728C70.6613 64.1894 70.4915 63.8079 70.1519 63.5282C69.8124 63.2446 69.1911 62.9769 68.2883 62.7252C67.3854 62.4695 66.7262 62.1919 66.3107 61.8923C65.7195 61.4688 65.4238 60.9135 65.4238 60.2263C65.4238 59.5592 65.6975 59.0178 66.2448 58.6024C66.7961 58.1829 67.4992 57.9731 68.3542 57.9731C68.9335 57.9731 69.4508 58.085 69.9062 58.3087C70.3657 58.5324 70.7212 58.8441 70.9729 59.2436C71.2246 59.6431 71.3505 60.0885 71.3505 60.5799H70.6074C70.6074 59.9846 70.4036 59.5072 69.9961 59.1477C69.5886 58.7841 69.0413 58.6024 68.3542 58.6024C67.687 58.6024 67.1557 58.7522 66.7602 59.0518C66.3647 59.3474 66.1669 59.735 66.1669 60.2144C66.1669 60.6578 66.3447 61.0194 66.7002 61.299C67.0558 61.5787 67.6251 61.8263 68.4081 62.0421C69.1911 62.2538 69.7844 62.4755 70.1879 62.7073C70.5914 62.935 70.895 63.2086 71.0988 63.5282C71.3025 63.8478 71.4044 64.2254 71.4044 64.6608C71.4044 65.348 71.1287 65.8993 70.5774 66.3148C70.0301 66.7302 69.307 66.938 68.4081 66.938C67.7929 66.938 67.2276 66.8281 66.7122 66.6084C66.2009 66.3887 65.8113 66.0811 65.5437 65.6855C65.28 65.29 65.1482 64.8366 65.1482 64.3252H65.8853C65.8853 64.9405 66.115 65.4259 66.5744 65.7814C67.0338 66.137 67.6451 66.3148 68.4081 66.3148C69.0873 66.3148 69.6326 66.165 70.0441 65.8653C70.4556 65.5657 70.6613 65.1682 70.6613 64.6728Z" fill="white"/>
<path d="M54.5452 32.7273L47.7271 29.3182L54.5452 25.9091L54.5452 32.7273Z" fill="white"/>
<path d="M40.909 49.0908L34.0908 45.6817L40.909 42.2726L40.909 49.0908Z" fill="white"/>
<path d="M27.2726 17.7273L34.0908 21.1364L27.2726 24.5455L27.2726 17.7273Z" fill="white"/>
<path d="M23.1818 34.0908L30 37.4999L23.1818 40.909L23.1818 34.0908Z" fill="white"/>
<rect width="8.18182" height="1.36364" transform="matrix(-1 0 0 1 64.0908 28.6365)" fill="white"/>
<rect width="35.4545" height="1.36364" transform="matrix(-1 0 0 1 46.3638 28.6365)" fill="white"/>
<rect width="19.0909" height="1.36364" transform="matrix(-1 0 0 1 32.7271 45)" fill="white"/>
<rect width="4.09091" height="4.09091" transform="matrix(-1 0 0 1 13.6362 43.6365)" fill="white"/>
<rect width="4.09091" height="4.09091" transform="matrix(-1 0 0 1 13.6362 19.0908)" fill="white"/>
<rect width="10.9091" height="1.36364" transform="matrix(-1 0 0 1 21.8184 36.8181)" fill="white"/>
<rect width="28.6364" height="1.36364" transform="matrix(-1 0 0 1 64.0908 20.4546)" fill="white"/>
<rect width="15" height="1.36364" transform="matrix(-1 0 0 1 25.9092 20.4546)" fill="white"/>
<rect width="9.54545" height="1.36364" transform="matrix(4.37114e-08 1 1 -4.37114e-08 64.0908 20.4546)" fill="white"/>
<rect width="21.8182" height="1.36364" transform="matrix(-1 0 0 1 64.0908 45)" fill="white"/>
<rect width="32.7273" height="1.36364" transform="matrix(-1 0 0 1 64.0908 36.8181)" fill="white"/>
<rect width="9.54545" height="1.36364" transform="matrix(4.37114e-08 1 1 -4.37114e-08 64.0908 36.8181)" fill="white"/>
<rect width="9.54545" height="1.36364" transform="matrix(4.37114e-08 1 1 -4.37114e-08 10.9092 28.6365)" fill="white"/>
</svg>
