<svg width="75" height="75" viewBox="0 0 75 75" fill="none" xmlns="http://www.w3.org/2000/svg">
<path d="M16.3748 63.2646V66.8181H15.6377V58.093H18.61C19.5169 58.093 20.232 58.3247 20.7553 58.7881C21.2827 59.2516 21.5463 59.8888 21.5463 60.6998C21.5463 61.5187 21.2927 62.1519 20.7853 62.5994C20.2819 63.0428 19.5508 63.2646 18.592 63.2646H16.3748ZM16.3748 62.6413H18.61C19.3251 62.6413 19.8704 62.4715 20.246 62.132C20.6215 61.7924 20.8093 61.319 20.8093 60.7117C20.8093 60.1085 20.6215 59.6291 20.246 59.2735C19.8744 58.914 19.3451 58.7302 18.6579 58.7222H16.3748V62.6413Z" fill="white"/>
<path d="M26.4602 63.1867H23.9254V66.8181H23.1823V58.093H26.0168C26.9476 58.093 27.6747 58.3187 28.1981 58.7702C28.7214 59.2216 28.9831 59.8528 28.9831 60.6638C28.9831 61.2231 28.8193 61.7165 28.4917 62.144C28.1641 62.5714 27.7247 62.8671 27.1733 63.0309L29.3546 66.7402V66.8181H28.5696L26.4602 63.1867ZM23.9254 62.5574H26.1846C26.8038 62.5574 27.3012 62.3817 27.6767 62.0301C28.0522 61.6785 28.24 61.2231 28.24 60.6638C28.24 60.0486 28.0443 59.5712 27.6527 59.2316C27.2612 58.892 26.7119 58.7222 26.0048 58.7222H23.9254V62.5574Z" fill="white"/>
<path d="M37.4386 62.929C37.4386 63.732 37.2987 64.4371 37.0191 65.0443C36.7434 65.6516 36.3479 66.119 35.8326 66.4466C35.3172 66.7742 34.7219 66.938 34.0468 66.938C33.0281 66.938 32.2051 66.5744 31.5779 65.8473C30.9506 65.1163 30.637 64.1315 30.637 62.893V61.9941C30.637 61.1991 30.7769 60.496 31.0565 59.8848C31.3402 59.2695 31.7397 58.7981 32.255 58.4705C32.7704 58.1389 33.3636 57.9731 34.0348 57.9731C34.706 57.9731 35.2972 58.1349 35.8086 58.4585C36.324 58.7821 36.7215 59.2396 37.0011 59.8308C37.2808 60.4221 37.4266 61.1072 37.4386 61.8863V62.929ZM36.7015 61.9822C36.7015 60.9315 36.4638 60.1085 35.9884 59.5132C35.513 58.918 34.8618 58.6203 34.0348 58.6203C33.2238 58.6203 32.5766 58.92 32.0932 59.5192C31.6138 60.1145 31.3741 60.9474 31.3741 62.0181V62.929C31.3741 63.9637 31.6138 64.7847 32.0932 65.3919C32.5726 65.9952 33.2238 66.2968 34.0468 66.2968C34.8817 66.2968 35.5329 65.9992 36.0004 65.4039C36.4678 64.8046 36.7015 63.9717 36.7015 62.905V61.9822Z" fill="white"/>
<path d="M44.1023 62.7432H40.0333V66.8181H39.2963V58.093H44.7015V58.7222H40.0333V62.114H44.1023V62.7432Z" fill="white"/>
<path d="M47.0985 66.8181H46.3615V58.093H47.0985V66.8181Z" fill="white"/>
<path d="M50.2147 66.1949H54.5233V66.8181H49.4716V58.093H50.2147V66.1949Z" fill="white"/>
<path d="M60.7615 62.6353H56.6806V66.1949H61.3728V66.8181H55.9435V58.093H61.3428V58.7222H56.6806V62.0121H60.7615V62.6353Z" fill="white"/>
<path d="M55.9092 17.7273L37.5001 50.4546L19.091 17.7273L55.9092 17.7273Z" fill="white"/>
<path d="M45 21.8181L37.5 36.8181L30 21.8181L45 21.8181Z" fill="black"/>
<path d="M55.9092 16.3636L37.5001 12.2727L19.091 16.3636L55.9092 16.3636Z" fill="white"/>
<path d="M35.4545 50.4546L17.0454 17.7273L25.2272 45L35.4545 50.4546Z" fill="white"/>
<path d="M39.5455 50.4546L57.9546 17.7273L49.7728 45L39.5455 50.4546Z" fill="white"/>
</svg>
