<svg width="374" height="98" viewBox="0 0 374 98" fill="none" xmlns="http://www.w3.org/2000/svg">
<rect x="-0.000488281" width="374" height="98" fill="#141616"/>
<path d="M45.078 44H40.038L32.982 12.8H36.342L42.534 40.304L48.774 12.8H52.134L45.078 44ZM61.7108 44H58.3508V12.8H65.5988C68.0948 12.8 69.9828 13.392 71.2628 14.576C72.5748 15.76 73.2308 17.408 73.2308 19.52V27.68C73.2308 29.824 72.5908 31.488 71.3108 32.672C70.0308 33.824 68.1268 34.4 65.5988 34.4H61.7108V44ZM69.8708 27.68V19.52C69.8708 18.304 69.5028 17.36 68.7668 16.688C68.0308 16.016 66.9748 15.68 65.5988 15.68H61.7108V31.52H65.5988C68.4468 31.52 69.8708 30.24 69.8708 27.68ZM84.2689 44H80.9089V12.8H84.2689L94.6849 36.8V12.8H98.0449V44H94.6849L84.2689 20V44ZM122.05 44H118.69V12.8H131.89V15.68H122.05V26.72H129.97V29.6H122.05V44ZM154.212 18.8V38C154.212 40.144 153.524 41.808 152.148 42.992C150.804 44.144 148.772 44.72 146.052 44.72C143.364 44.72 141.332 44.144 139.956 42.992C138.58 41.808 137.892 40.144 137.892 38V18.8C137.892 16.656 138.564 15.008 139.908 13.856C141.284 12.672 143.316 12.08 146.004 12.08C148.724 12.08 150.772 12.672 152.148 13.856C153.524 15.008 154.212 16.656 154.212 18.8ZM150.852 38V18.8C150.852 16.24 149.252 14.96 146.052 14.96C142.852 14.96 141.252 16.24 141.252 18.8V38C141.252 40.56 142.852 41.84 146.052 41.84C149.252 41.84 150.852 40.56 150.852 38ZM166.441 44H163.081V12.8H170.329C172.825 12.8 174.713 13.392 175.993 14.576C177.305 15.76 177.961 17.408 177.961 19.52V26.24C177.961 29.504 176.553 31.584 173.737 32.48L179.641 44H175.945L170.329 32.96H166.441V44ZM174.601 26.24V19.52C174.601 18.304 174.233 17.36 173.497 16.688C172.761 16.016 171.705 15.68 170.329 15.68H166.441V30.08H170.329C173.177 30.08 174.601 28.8 174.601 26.24ZM201.616 12.8H206.656L213.712 44H210.352L208.72 36.8H199.552L197.92 44H194.56L201.616 12.8ZM204.112 16.544L200.176 33.92H208.048L204.112 16.544ZM234.831 44H231.471V12.8H236.511L241.983 33.392L247.503 12.8H252.543V44H249.183V18.176L243.567 39.2H240.447L234.831 18.176V44ZM277.728 18.8V38C277.728 40.144 277.04 41.808 275.664 42.992C274.32 44.144 272.288 44.72 269.568 44.72C266.88 44.72 264.848 44.144 263.472 42.992C262.096 41.808 261.408 40.144 261.408 38V18.8C261.408 16.656 262.08 15.008 263.424 13.856C264.8 12.672 266.832 12.08 269.52 12.08C272.24 12.08 274.288 12.672 275.664 13.856C277.04 15.008 277.728 16.656 277.728 18.8ZM274.368 38V18.8C274.368 16.24 272.768 14.96 269.568 14.96C266.368 14.96 264.768 16.24 264.768 18.8V38C264.768 40.56 266.368 41.84 269.568 41.84C272.768 41.84 274.368 40.56 274.368 38ZM289.956 44H286.596V12.8H289.956L300.372 36.8V12.8H303.732V44H300.372L289.956 20V44ZM325.795 12.8V15.68H319.555V44H316.195V15.68H309.955V12.8H325.795ZM335.378 44H332.018V12.8H335.378V26.72H344.834V12.8H348.194V44H344.834V29.6H335.378V44Z" fill="#00BFFF"/>
<path d="M156.704 66.4H160.328C161.576 66.4 162.52 66.696 163.16 67.288C163.816 67.88 164.144 68.704 164.144 69.76V71.2C164.144 72.56 163.576 73.432 162.44 73.816C163.736 74.168 164.384 75.056 164.384 76.48V78.64C164.384 79.712 164.064 80.544 163.424 81.136C162.784 81.712 161.832 82 160.568 82H156.704V66.4ZM162.704 78.64V76.48C162.704 75.968 162.512 75.504 162.128 75.088C161.744 74.656 161.224 74.44 160.568 74.44H158.384V80.56H160.568C161.24 80.56 161.76 80.376 162.128 80.008C162.512 79.624 162.704 79.168 162.704 78.64ZM162.464 71.2V69.76C162.464 69.248 162.272 68.8 161.888 68.416C161.52 68.032 161 67.84 160.328 67.84H158.384V73.24H160.328C161 73.24 161.52 73.032 161.888 72.616C162.272 72.2 162.464 71.728 162.464 71.2ZM175.061 79V66.4H176.741V79C176.741 80.072 176.397 80.904 175.709 81.496C175.037 82.072 174.021 82.36 172.661 82.36C171.317 82.36 170.301 82.072 169.613 81.496C168.925 80.904 168.581 80.072 168.581 79V66.4H170.261V79C170.261 80.28 171.061 80.92 172.661 80.92C174.261 80.92 175.061 80.28 175.061 79ZM185.13 82H183.45V76.408L179.49 66.4H181.266L184.29 74.44L187.314 66.4H189.09L185.13 76.432V82ZM197.386 82V80.56L201.946 74.104C202.01 74.024 202.13 73.856 202.306 73.6C202.482 73.344 202.61 73.16 202.69 73.048C202.77 72.936 202.882 72.768 203.026 72.544C203.17 72.32 203.274 72.144 203.338 72.016C203.418 71.872 203.498 71.712 203.578 71.536C203.738 71.216 203.818 70.904 203.818 70.6V69.304C203.818 68.728 203.626 68.28 203.242 67.96C202.874 67.64 202.314 67.48 201.562 67.48C200.81 67.48 200.242 67.64 199.858 67.96C199.49 68.28 199.306 68.728 199.306 69.304V71.44H197.626V69.4C197.626 67.16 198.914 66.04 201.49 66.04C202.834 66.04 203.834 66.336 204.49 66.928C205.162 67.504 205.498 68.328 205.498 69.4V70.6C205.498 71.144 205.322 71.744 204.97 72.4C204.634 73.04 204.058 73.944 203.242 75.112L199.426 80.56H205.474V82H197.386ZM212.98 84.4V82.336C210.676 82.176 209.524 81.064 209.524 79V76.96H211.204V79.096C211.204 80.136 211.796 80.736 212.98 80.896V74.752L210.82 72.64C210.324 72.144 209.98 71.664 209.788 71.2C209.612 70.72 209.524 70.12 209.524 69.4C209.524 67.336 210.676 66.224 212.98 66.064V64H214.18V66.064C216.324 66.256 217.396 67.368 217.396 69.4V71.44H215.716V69.304C215.716 68.328 215.204 67.744 214.18 67.552V73.6L216.412 75.736C216.876 76.248 217.196 76.744 217.372 77.224C217.548 77.688 217.636 78.28 217.636 79C217.636 81.064 216.484 82.176 214.18 82.336V84.4H212.98ZM211.204 69.304C211.204 69.848 211.26 70.28 211.372 70.6C211.484 70.92 211.732 71.256 212.116 71.608L212.98 72.448V67.504C211.796 67.648 211.204 68.248 211.204 69.304ZM215.956 79.096C215.956 78.568 215.892 78.144 215.764 77.824C215.652 77.488 215.412 77.136 215.044 76.768L214.18 75.928V80.896C215.364 80.736 215.956 80.136 215.956 79.096Z" fill="#00FF57"/>
</svg>
