<svg width="55" height="55" viewBox="0 0 55 55" fill="none" xmlns="http://www.w3.org/2000/svg">
<rect width="55" height="55" fill="#202932"/>
<rect x="5" y="5" width="45" height="45" rx="5" fill="#AED2F5"/>
<path d="M23.7832 34H21.9766V23.4336H23.7832V34ZM21.8301 20.6309C21.8301 20.3379 21.918 20.0905 22.0938 19.8887C22.276 19.6868 22.543 19.5859 22.8945 19.5859C23.2461 19.5859 23.513 19.6868 23.6953 19.8887C23.8776 20.0905 23.9688 20.3379 23.9688 20.6309C23.9688 20.9238 23.8776 21.168 23.6953 21.3633C23.513 21.5586 23.2461 21.6562 22.8945 21.6562C22.543 21.6562 22.276 21.5586 22.0938 21.3633C21.918 21.168 21.8301 20.9238 21.8301 20.6309ZM33.4219 27.75C33.0443 28.1992 32.5918 28.5605 32.0645 28.834C31.5436 29.1074 30.9707 29.2441 30.3457 29.2441C29.5254 29.2441 28.8092 29.0423 28.1973 28.6387C27.5918 28.235 27.123 27.6686 26.791 26.9395C26.459 26.2038 26.293 25.3932 26.293 24.5078C26.293 23.5573 26.472 22.7012 26.8301 21.9395C27.1947 21.1777 27.709 20.5951 28.373 20.1914C29.0371 19.7878 29.8118 19.5859 30.6973 19.5859C32.1035 19.5859 33.2103 20.1133 34.0176 21.168C34.8314 22.2161 35.2383 23.6484 35.2383 25.4648V25.9922C35.2383 28.7591 34.6914 30.7806 33.5977 32.0566C32.5039 33.3262 30.8535 33.9772 28.6465 34.0098H28.2949V32.4863H28.6758C30.1667 32.4603 31.3125 32.0729 32.1133 31.3242C32.9141 30.569 33.3503 29.3776 33.4219 27.75ZM30.6387 27.75C31.2441 27.75 31.8008 27.5645 32.3086 27.1934C32.8229 26.8223 33.1973 26.3633 33.4316 25.8164V25.0938C33.4316 23.9089 33.1745 22.9453 32.6602 22.2031C32.1458 21.4609 31.4948 21.0898 30.707 21.0898C29.9128 21.0898 29.2747 21.3958 28.793 22.0078C28.3112 22.6133 28.0703 23.4141 28.0703 24.4102C28.0703 25.3802 28.3014 26.181 28.7637 26.8125C29.2324 27.4375 29.8574 27.75 30.6387 27.75Z" fill="#202932"/>
</svg>
