<svg width="55" height="55" viewBox="0 0 55 55" fill="none" xmlns="http://www.w3.org/2000/svg">
<rect width="55" height="55" fill="#202932"/>
<path d="M10.6391 32.594L24.097 30.7588L22.2619 44.2169L9.10982 47.5811L7.88638 46.9694L7.27466 45.746L10.6391 32.594Z" fill="#AED2F5"/>
<path d="M35.108 27.0886L26.6203 28.6943L27.7673 19.7479L34.1904 15.7717L36.6373 18.2186L38.7783 20.3596L35.108 27.0886Z" fill="#AED2F5"/>
<path d="M39.3862 21.4899L52.2317 24.3594L50.7352 27.2524L42.3554 32.4399L39.163 29.2476L36.3697 26.4543L39.3862 21.4899Z" fill="#AED2F5"/>
<path d="M33.2423 15.4349L30.3728 2.58935L27.4798 4.08581L22.2922 12.4657L25.4846 15.658L28.2779 18.4513L33.2423 15.4349Z" fill="#AED2F5"/>
<path d="M10.7603 32.5322L26.8152 17.6966L37.1798 28.0612L22.3442 44.1162L10.7603 32.5322Z" fill="#AED2F5"/>
<path d="M18.8029 39.6948L14.7812 35.6731L15.969 34.4854C16.3244 34.13 16.7184 33.8943 17.1512 33.7783C17.5857 33.6605 18.024 33.6715 18.4659 33.8115C18.9079 33.9514 19.3167 34.2092 19.6923 34.5848L19.894 34.7865C20.2751 35.1677 20.5339 35.5792 20.6701 36.0212C20.8082 36.4613 20.8147 36.9004 20.6895 37.3387C20.5661 37.7751 20.323 38.1747 19.9603 38.5375L18.8029 39.6948ZM16.0435 35.5378L18.9438 38.438L19.3995 37.9823C19.766 37.6158 19.9326 37.2208 19.8995 36.7973C19.8663 36.3701 19.6371 35.9401 19.2117 35.5074L18.988 35.2837C18.5516 34.8473 18.1234 34.6088 17.7036 34.5683C17.2837 34.5278 16.8934 34.688 16.5324 35.0489L16.0435 35.5378Z" fill="#202932"/>
<path d="M22.4987 35.9991L18.477 31.9774L19.6647 30.7897C20.0201 30.4343 20.4142 30.1986 20.8469 30.0826C21.2815 29.9647 21.7197 29.9758 22.1617 30.1157C22.6036 30.2557 23.0124 30.5135 23.3881 30.8891L23.5897 31.0907C23.9709 31.4719 24.2296 31.8835 24.3659 32.3254C24.504 32.7655 24.5104 33.2047 24.3852 33.643C24.2618 34.0794 24.0188 34.479 23.656 34.8417L22.4987 35.9991ZM19.7393 31.842L22.6395 34.7423L23.0953 34.2865C23.4617 33.9201 23.6284 33.5251 23.5952 33.1016C23.5621 32.6744 23.3328 32.2444 22.9075 31.8117L22.6837 31.5879C22.2473 31.1515 21.8192 30.913 21.3993 30.8725C20.9795 30.832 20.5891 30.9922 20.2282 31.3531L19.7393 31.842Z" fill="#202932"/>
<path d="M27.4981 27.1878C27.8922 27.5819 28.1702 27.9962 28.3323 28.4308C28.4925 28.8635 28.5256 29.2871 28.4317 29.7014C28.3378 30.112 28.126 30.4822 27.7964 30.8118C27.4705 31.1377 27.1004 31.3495 26.6861 31.4471C26.2717 31.541 25.8473 31.5106 25.4127 31.3559C24.98 31.1994 24.5703 30.9296 24.1836 30.5466L23.9571 30.3201C23.5648 29.9279 23.2877 29.5126 23.1257 29.0744C22.9655 28.6343 22.9323 28.2089 23.0262 27.7983C23.1201 27.384 23.331 27.0129 23.6588 26.6851C23.9865 26.3574 24.3557 26.1465 24.7664 26.0526C25.177 25.955 25.5996 25.9854 26.0342 26.1438C26.4669 26.3003 26.8803 26.5737 27.2744 26.9641L27.4981 27.1878ZM26.5894 27.6767C26.1438 27.2311 25.7175 26.9742 25.3105 26.9061C24.9054 26.8361 24.5482 26.9558 24.2388 27.2652C23.9368 27.5672 23.819 27.9226 23.8852 28.3314C23.9515 28.7365 24.1992 29.1573 24.6283 29.5937L24.8603 29.8257C25.3022 30.2676 25.7294 30.5236 26.1419 30.5936C26.5562 30.6617 26.9162 30.5429 27.2219 30.2372C27.5313 29.9279 27.651 29.5725 27.581 29.1711C27.5129 28.7678 27.2523 28.3397 26.7993 27.8867L26.5894 27.6767Z" fill="#202932"/>
<path d="M31.1662 25.2599C30.9895 25.0831 30.7906 25.0094 30.5696 25.0389C30.3505 25.0665 30.0301 25.1936 29.6084 25.4201C29.1867 25.6466 28.8203 25.7957 28.5091 25.8675C27.9124 26.0038 27.4291 25.8869 27.0589 25.5168C26.7349 25.1927 26.5995 24.794 26.6529 24.3208C26.7082 23.8457 26.9466 23.3973 27.3683 22.9756C27.6482 22.6957 27.9493 22.4977 28.2715 22.3817C28.5938 22.2657 28.9133 22.2409 29.23 22.3072C29.5449 22.3716 29.8183 22.5198 30.0503 22.7519L29.3543 23.4479C29.1444 23.238 28.9142 23.1404 28.6637 23.1551C28.4133 23.1662 28.1656 23.2942 27.9207 23.5391C27.6924 23.7674 27.5635 23.9939 27.534 24.2186C27.5064 24.4414 27.5801 24.6402 27.755 24.8152C27.9023 24.9625 28.0938 25.0177 28.3295 24.9809C28.5634 24.9422 28.8838 24.8133 29.2907 24.5942C29.6959 24.3732 30.0531 24.2278 30.3625 24.1578C30.67 24.086 30.9453 24.0832 31.1883 24.1495C31.4296 24.2139 31.6533 24.3493 31.8595 24.5555C32.1947 24.8907 32.3328 25.2866 32.2739 25.7433C32.2149 26.1962 31.9654 26.6428 31.5253 27.0829C31.2344 27.3738 30.913 27.5884 30.5613 27.7265C30.2096 27.8609 29.8708 27.9014 29.5449 27.848C29.2208 27.7928 28.9326 27.639 28.6803 27.3867L29.3791 26.6879C29.6075 26.9162 29.8597 27.0175 30.136 26.9917C30.4122 26.966 30.6912 26.8122 30.9729 26.5305C31.216 26.2874 31.3495 26.0563 31.3734 25.8372C31.3973 25.6144 31.3283 25.4219 31.1662 25.2599Z" fill="#202932"/>
<rect x="40.1062" y="9.09961" width="1.09215" height="7.64503" transform="rotate(45 40.1062 9.09961)" fill="#AED2F5"/>
<rect x="40.1062" y="13.7334" width="1.09215" height="4.36859" transform="rotate(45 40.1062 13.7334)" fill="#AED2F5"/>
<rect x="49.3735" y="9.09961" width="1.09215" height="14.1979" transform="rotate(45 49.3735 9.09961)" fill="#AED2F5"/>
</svg>
