<svg width="75" height="89" viewBox="0 0 75 89" fill="none" xmlns="http://www.w3.org/2000/svg">
<rect width="69" height="12" fill="#FF4654"/>
<path d="M75 12L69 0V12H75Z" fill="#FF4654"/>
<rect y="12" width="75" height="77" fill="#FF4654"/>
<rect x="7.5" y="29.5" width="49" height="37" rx="1.5" fill="#FF4654" stroke="#0F1923"/>
<line x1="7" y1="58.5" x2="57" y2="58.5" stroke="#0F1923"/>
<line x1="31.5" y1="72" x2="31.5" y2="67" stroke="#0F1923"/>
<line x1="39" y1="72.5" x2="24" y2="72.5" stroke="#0F1923"/>
<rect x="35.5" y="36.5" width="26" height="36" rx="1.5" fill="#FF4654" stroke="#0F1923"/>
<rect x="51.5" y="44.5" width="16" height="28" rx="1.5" fill="#FF4654" stroke="#0F1923"/>
<rect x="57.5" y="67.5" width="4" height="4" rx="2" fill="#FF4654" stroke="#0F1923"/>
<rect x="45.5" y="67.5" width="4" height="4" rx="2" fill="#FF4654" stroke="#0F1923"/>
<path d="M22.2627 10V2.89062H24.25C24.8327 2.89062 25.3551 3.02409 25.8174 3.29102C26.2796 3.55469 26.6393 3.93392 26.8965 4.42871C27.1569 4.9235 27.2871 5.48665 27.2871 6.11816V6.77246C27.2871 7.40723 27.1585 7.97038 26.9014 8.46191C26.6442 8.95345 26.2812 9.33268 25.8125 9.59961C25.347 9.86654 24.8115 10 24.2061 10H22.2627ZM22.8633 3.40332V9.49219H24.2109C24.9596 9.49219 25.5602 9.24479 26.0127 8.75C26.4652 8.25195 26.6914 7.57975 26.6914 6.7334V6.1084C26.6914 5.29134 26.4684 4.63704 26.0225 4.14551C25.5765 3.65397 24.9889 3.40658 24.2598 3.40332H22.8633ZM32.7412 6.5918H29.416V9.49219H33.2393V10H28.8154V2.89062H33.2148V3.40332H29.416V6.08398H32.7412V6.5918ZM36.6523 9.12109L36.6914 9.27246L36.7354 9.12109L38.9717 2.89062H39.6309L36.9844 10H36.4082L33.7617 2.89062H34.416L36.6523 9.12109ZM41.4131 10H40.8125V2.89062H41.4131V10ZM48.3809 7.7832C48.2995 8.5319 48.0309 9.10482 47.5752 9.50195C47.1227 9.89909 46.5189 10.0977 45.7637 10.0977C45.2363 10.0977 44.7692 9.96582 44.3623 9.70215C43.9587 9.43848 43.6462 9.06576 43.4248 8.58398C43.2035 8.09896 43.0911 7.54557 43.0879 6.92383V6.00098C43.0879 5.36947 43.1986 4.80957 43.4199 4.32129C43.6413 3.83301 43.9587 3.45703 44.3721 3.19336C44.7887 2.92643 45.2673 2.79297 45.8076 2.79297C46.5693 2.79297 47.1699 2.99967 47.6094 3.41309C48.0521 3.82324 48.3092 4.39128 48.3809 5.11719H47.7754C47.6257 3.90951 46.9697 3.30566 45.8076 3.30566C45.1631 3.30566 44.6488 3.54655 44.2646 4.02832C43.8838 4.51009 43.6934 5.17578 43.6934 6.02539V6.89453C43.6934 7.71484 43.8789 8.36914 44.25 8.85742C44.6243 9.3457 45.1289 9.58984 45.7637 9.58984C46.3919 9.58984 46.8656 9.4401 47.1846 9.14062C47.5036 8.83789 47.7005 8.38542 47.7754 7.7832H48.3809ZM53.7666 6.5918H50.4414V9.49219H54.2646V10H49.8408V2.89062H54.2402V3.40332H50.4414V6.08398H53.7666V6.5918Z" fill="#AED2F5"/>
</svg>
