<svg width="55" height="93" viewBox="0 0 55 93" fill="none" xmlns="http://www.w3.org/2000/svg">
<rect x="0.5" y="0.5" width="54" height="92" rx="1.5" fill="#FF4654" stroke="#0F1923"/>
<rect x="0.5" y="12.5" width="54" height="67" fill="#FF4654" stroke="#0F1923"/>
<rect x="14.5" y="31.5" width="27" height="27" rx="13.5" fill="#FF4654" stroke="#0F1923"/>
<rect x="0.5" y="-0.5" width="9" height="1" transform="matrix(1 0 0 -1 23 5)" fill="#FF4654" stroke="#0F1923"/>
<path d="M28.1867 63.9923L20.4042 50.5126L35.9692 50.5126L28.1867 63.9923Z" fill="#0F1923" stroke="#FF4654"/>
<path d="M18.6418 47.6283L10.8593 34.1486L26.4243 34.1486L18.6418 47.6283Z" fill="#0F1923" stroke="#FF4654"/>
<path d="M37.5858 47.7125L29.8033 34.2328L45.3684 34.2328L37.5858 47.7125Z" fill="#0F1923" stroke="#FF4654"/>
<path d="M27.799 52.9151L20.0165 39.4355L35.5815 39.4355L27.799 52.9151Z" fill="#0F1923" stroke="#FF4654"/>
<rect x="19.5" y="82.5" width="16" height="6" rx="2" fill="#FF4654" stroke="#0F1923"/>
</svg>
