<svg width="55" height="55" viewBox="0 0 55 55" fill="none" xmlns="http://www.w3.org/2000/svg">
<rect width="55" height="55" fill="#202932"/>
<rect x="5" y="10" width="22" height="8" fill="#AED2F5"/>
<rect x="17" y="19" width="22" height="8" fill="#AED2F5"/>
<rect x="40" y="19" width="10" height="8" fill="#AED2F5"/>
<rect x="5" y="19" width="11" height="8" fill="#AED2F5"/>
<rect x="28" y="10" width="22" height="8" fill="#AED2F5"/>
<rect x="5" y="28" width="22" height="8" fill="#AED2F5"/>
<rect x="17" y="37" width="22" height="8" fill="#AED2F5"/>
<rect x="40" y="37" width="10" height="8" fill="#AED2F5"/>
<rect x="5" y="37" width="11" height="8" fill="#AED2F5"/>
<rect x="28" y="28" width="22" height="8" fill="#AED2F5"/>
<path d="M29 53.5C20.9769 53.5 14.5 47.2015 14.5 39.4647C14.5 38.5375 14.6972 37.8332 15.0253 37.2502C15.3565 36.6618 15.8373 36.1678 16.4486 35.6851C16.9676 35.2752 17.5579 34.8901 18.2127 34.4631C18.3368 34.3821 18.4632 34.2997 18.5919 34.2153C19.3904 33.6915 20.2564 33.104 21.1208 32.3688C24.5289 29.4699 27.7476 24.4102 27.6432 12.1097C32.2323 16.1628 36.109 20.9362 38.8814 25.655C41.8278 30.6697 43.5 35.5761 43.5 39.4647C43.5 47.2015 37.0231 53.5 29 53.5Z" fill="#AED2F5" stroke="#202932"/>
<path d="M31.5 50.5C27.6077 50.5 24.5 47.5201 24.5 43.9014C24.5 43.4896 24.5888 43.1913 24.728 42.9497C24.8706 42.7022 25.0831 42.4847 25.3747 42.2598C25.6245 42.0671 25.9085 41.8861 26.2361 41.6774C26.2986 41.6375 26.3628 41.5967 26.4286 41.5545C26.8297 41.2975 27.2734 41.0039 27.718 40.6345C28.6175 39.8871 29.5026 38.845 30.1368 37.1627C30.6919 35.6901 31.0486 33.7438 31.0717 31.0994C33.1666 32.9807 34.9392 35.1489 36.2278 37.2911C37.6893 39.7208 38.5 42.0693 38.5 43.9014C38.5 47.5201 35.3923 50.5 31.5 50.5Z" fill="#AED2F5" stroke="#202932"/>
</svg>
