<svg width="55" height="55" viewBox="0 0 55 55" fill="none" xmlns="http://www.w3.org/2000/svg">
<rect width="55" height="55" fill="#202932"/>
<rect x="15" y="10" width="22" height="36" fill="#767676"/>
<rect x="15" y="26" width="25" height="20" fill="#767676"/>
<rect x="36.9321" y="22" width="5" height="5" transform="rotate(51.8517 36.9321 22)" fill="#767676"/>
<path d="M24.031 13.8349L22.87 12.0619L23.608 12.0619L24.841 13.8439L24.841 14.6179L19 14.6179L19 13.8349L24.031 13.8349ZM20.044 16.8326C20.212 16.8326 20.368 16.8596 20.512 16.9136C20.662 16.9736 20.788 17.0486 20.89 17.1386C20.974 17.2106 21.064 17.3186 21.16 17.4626C21.262 17.6126 21.346 17.7536 21.412 17.8856C21.472 17.9996 21.541 18.1496 21.619 18.3356L22.051 19.3076C22.219 19.6916 22.48 19.8836 22.834 19.8836L23.635 19.8836C23.911 19.8836 24.094 19.7996 24.184 19.6316C24.28 19.4636 24.328 19.1696 24.328 18.7496C24.328 18.3356 24.265 17.7656 24.139 17.0396L24.769 17.0396C24.883 17.6456 24.94 18.2726 24.94 18.9206C24.94 19.5686 24.841 20.0366 24.643 20.3246C24.451 20.6126 24.127 20.7566 23.671 20.7566L22.717 20.7566C22.501 20.7566 22.321 20.7206 22.177 20.6486C22.039 20.5766 21.913 20.4596 21.799 20.2976C21.691 20.1416 21.568 19.9106 21.43 19.6046L20.809 18.2546C20.629 17.8586 20.365 17.6606 20.017 17.6606L19.63 17.6606L19.63 20.7566L19 20.7566L19 16.8326L20.044 16.8326ZM18.91 24.0063C18.91 23.2743 18.997 22.7463 19.171 22.4223C19.351 22.0983 19.645 21.9363 20.053 21.9363L21.142 21.9363C21.376 21.9363 21.571 22.0263 21.727 22.2063C21.889 22.3923 22.006 22.6383 22.078 22.9443L22.114 22.9443C22.174 22.6743 22.27 22.4703 22.402 22.3323C22.534 22.2003 22.717 22.1343 22.951 22.1343L23.86 22.1343C24.028 22.1343 24.172 22.1613 24.292 22.2153C24.412 22.2693 24.526 22.3593 24.634 22.4853C24.838 22.7433 24.94 23.2503 24.94 24.0063C24.94 24.7623 24.838 25.2693 24.634 25.5273C24.526 25.6533 24.412 25.7433 24.292 25.7973C24.172 25.8513 24.028 25.8783 23.86 25.8783L22.951 25.8783C22.717 25.8783 22.534 25.8123 22.402 25.6803C22.27 25.5483 22.174 25.3473 22.114 25.0773L22.078 25.0773C22.006 25.3833 21.889 25.6263 21.727 25.8063C21.571 25.9923 21.376 26.0853 21.142 26.0853L20.071 26.0853C19.651 26.0853 19.351 25.9233 19.171 25.5993C18.997 25.2813 18.91 24.7503 18.91 24.0063ZM22.276 24.0063C22.276 24.4023 22.318 24.6753 22.402 24.8253C22.486 24.9813 22.642 25.0593 22.87 25.0593L23.815 25.0593C24.037 25.0593 24.193 24.9783 24.283 24.8163C24.373 24.6543 24.418 24.3843 24.418 24.0063C24.418 23.6283 24.373 23.3583 24.283 23.1963C24.193 23.0343 24.037 22.9533 23.815 22.9533L22.87 22.9533C22.642 22.9533 22.486 23.0283 22.402 23.1783C22.318 23.3343 22.276 23.6103 22.276 24.0063ZM19.432 24.0063C19.432 24.4443 19.477 24.7533 19.567 24.9333C19.657 25.1133 19.81 25.2033 20.026 25.2033L21.115 25.2033C21.421 25.2033 21.613 25.0743 21.691 24.8163C21.727 24.6903 21.748 24.5733 21.754 24.4653C21.766 24.3573 21.772 24.2043 21.772 24.0063C21.772 23.8083 21.766 23.6583 21.754 23.5563C21.748 23.4543 21.727 23.3373 21.691 23.2053C21.613 22.9413 21.421 22.8093 21.115 22.8093L20.026 22.8093C19.81 22.8093 19.657 22.8993 19.567 23.0793C19.477 23.2593 19.432 23.5683 19.432 24.0063ZM17.02 31.0492C17.02 30.4552 17.053 29.9542 17.119 29.5462L17.695 29.5462C17.611 30.2662 17.569 30.7912 17.569 31.1212C17.569 31.5352 17.635 31.8352 17.767 32.0212C17.899 32.2132 18.118 32.3092 18.424 32.3092L19.468 32.3092C19.276 32.2972 19.135 32.1652 19.045 31.9132C18.955 31.6672 18.91 31.3552 18.91 30.9772C18.91 30.5272 18.952 30.1762 19.036 29.9242C19.12 29.6782 19.258 29.5012 19.45 29.3932C19.642 29.2912 19.903 29.2402 20.233 29.2402L22.006 29.2402C22.522 29.2402 22.891 29.3782 23.113 29.6542C23.335 29.9362 23.446 30.3952 23.446 31.0312C23.446 31.7872 23.275 32.2312 22.933 32.3632L23.356 32.3632L23.356 33.1192L18.586 33.1192C18.184 33.1192 17.869 33.0442 17.641 32.8942C17.413 32.7442 17.254 32.5192 17.164 32.2192C17.068 31.9192 17.02 31.5292 17.02 31.0492ZM19.45 31.1482C19.45 31.5742 19.501 31.8742 19.603 32.0482C19.705 32.2222 19.897 32.3092 20.179 32.3092L22.15 32.3092C22.348 32.3092 22.498 32.2762 22.6 32.2102C22.702 32.1502 22.774 32.0362 22.816 31.8682C22.864 31.7002 22.888 31.4542 22.888 31.1302C22.888 30.8242 22.867 30.5932 22.825 30.4372C22.783 30.2872 22.708 30.1822 22.6 30.1222C22.498 30.0682 22.348 30.0412 22.15 30.0412L20.179 30.0412C19.975 30.0412 19.822 30.0712 19.72 30.1312C19.618 30.1912 19.546 30.2992 19.504 30.4552C19.468 30.6112 19.45 30.8422 19.45 31.1482ZM18.91 36.4702C18.91 36.1462 18.928 35.8852 18.964 35.6872C18.994 35.4952 19.054 35.3032 19.144 35.1112C19.33 34.7212 19.756 34.5262 20.422 34.5262L25.3 34.5262L25.3 35.3362L23.995 35.3362L23.482 35.3362C23.326 35.3302 23.152 35.3272 22.96 35.3272C23.098 35.3572 23.215 35.4832 23.311 35.7052C23.401 35.9332 23.446 36.2632 23.446 36.6952C23.446 37.8952 23.035 38.4952 22.213 38.4952L20.422 38.4952C20.164 38.4952 19.939 38.4562 19.747 38.3782C19.555 38.3062 19.405 38.2102 19.297 38.0902C19.195 37.9822 19.114 37.8322 19.054 37.6402C18.994 37.4542 18.955 37.2682 18.937 37.0822C18.919 36.9142 18.91 36.7102 18.91 36.4702ZM19.441 36.4882C19.441 36.8002 19.462 37.0372 19.504 37.1992C19.552 37.3672 19.636 37.4872 19.756 37.5592C19.876 37.6312 20.059 37.6672 20.305 37.6672L22.015 37.6672C22.261 37.6672 22.444 37.6312 22.564 37.5592C22.69 37.4872 22.771 37.3672 22.807 37.1992C22.849 37.0372 22.87 36.7972 22.87 36.4792C22.87 36.1852 22.846 35.9572 22.798 35.7952C22.75 35.6332 22.663 35.5162 22.537 35.4442C22.417 35.3722 22.243 35.3362 22.015 35.3362L20.305 35.3362C20.059 35.3362 19.876 35.3692 19.756 35.4352C19.636 35.5072 19.552 35.6242 19.504 35.7862C19.462 35.9482 19.441 36.1822 19.441 36.4882Z" fill="black"/>
<rect x="31" y="10" width="4" height="36" fill="#921E1E"/>
<rect x="15" y="10" width="22" height="36" fill="#AED2F5"/>
<rect x="15" y="26" width="25" height="20" fill="#AED2F5"/>
<rect x="36.9321" y="22" width="5" height="5" transform="rotate(51.8517 36.9321 22)" fill="#AED2F5"/>
<path d="M18 15.6357L18 14.8184L23.4185 14.8184L22.8164 13.1792L23.5547 13.1792L24.4292 15.5083L24.4292 15.6357L18 15.6357ZM18 22.21L18 18.0176L18.5845 18.0176L21.0454 20.2324C21.4175 20.5605 21.7192 20.7861 21.9507 20.9092C22.1851 21.0352 22.4268 21.0981 22.6758 21.0981C23.0098 21.0981 23.2837 20.9971 23.4976 20.7949C23.7114 20.5928 23.8184 20.3232 23.8184 19.9863C23.8184 19.582 23.7026 19.2671 23.4712 19.0415C23.2427 18.8188 22.9233 18.7075 22.5132 18.7075L22.5132 17.8945C23.1021 17.8945 23.5781 18.0835 23.9414 18.4614C24.3047 18.8423 24.4863 19.3506 24.4863 19.9863C24.4863 20.5811 24.3296 21.0513 24.0161 21.397C23.7056 21.7427 23.291 21.9155 22.7725 21.9155C22.1426 21.9155 21.3926 21.5142 20.5225 20.7114L18.6636 18.9976L18.6636 22.21L18 22.21ZM22.7285 26.9517C22.4092 26.9517 22.125 26.8667 21.876 26.6968C21.627 26.5298 21.4321 26.3027 21.2915 26.0156C21.1479 26.3496 20.9385 26.6133 20.6631 26.8066C20.3877 27.0029 20.0757 27.1011 19.7271 27.1011C19.1733 27.1011 18.7324 26.9136 18.4043 26.5386C18.0762 26.1665 17.9121 25.6758 17.9121 25.0664C17.9121 24.4512 18.0762 23.9575 18.4043 23.5854C18.7354 23.2163 19.1763 23.0317 19.7271 23.0317C20.0728 23.0317 20.3848 23.1255 20.6631 23.313C20.9414 23.5034 21.1523 23.7656 21.2959 24.0996C21.4365 23.8154 21.6313 23.5913 21.8804 23.4272C22.1294 23.2632 22.4121 23.1812 22.7285 23.1812C23.2676 23.1812 23.6953 23.354 24.0117 23.6997C24.3281 24.0454 24.4863 24.501 24.4863 25.0664C24.4863 25.6289 24.3281 26.083 24.0117 26.4287C23.6953 26.7773 23.2676 26.9517 22.7285 26.9517ZM19.7446 26.2881C20.1021 26.2881 20.3936 26.1738 20.6191 25.9453C20.8447 25.7197 20.9575 25.4238 20.9575 25.0576C20.9575 24.6914 20.8462 24.397 20.6235 24.1743C20.4009 23.9546 20.1079 23.8447 19.7446 23.8447C19.3813 23.8447 19.0957 23.9517 18.8877 24.1655C18.6797 24.3823 18.5757 24.6826 18.5757 25.0664C18.5757 25.4473 18.6797 25.7461 18.8877 25.9629C19.0986 26.1797 19.3843 26.2881 19.7446 26.2881ZM23.8184 25.0664C23.8184 24.7471 23.7187 24.4878 23.5195 24.2886C23.3232 24.0923 23.0552 23.9941 22.7153 23.9941C22.3901 23.9941 22.1265 24.0908 21.9243 24.2842C21.7251 24.4805 21.6255 24.7412 21.6255 25.0664C21.6255 25.3916 21.7251 25.6509 21.9243 25.8442C22.1265 26.0405 22.3901 26.1387 22.7153 26.1387C23.0405 26.1387 23.3057 26.0376 23.5107 25.8354C23.7158 25.6333 23.8184 25.377 23.8184 25.0664ZM18.8394 35.2925C18.5288 35.0757 18.2959 34.7725 18.1406 34.3828C17.9883 33.9961 17.9121 33.5449 17.9121 33.0293C17.9121 32.5078 18.0337 32.0449 18.2769 31.6406C18.5229 31.2363 18.8716 30.9229 19.3228 30.7002C19.7739 30.4805 20.2969 30.3677 20.8916 30.3618L21.4497 30.3618C22.4136 30.3618 23.1606 30.5859 23.6909 31.0342C24.2212 31.4854 24.4863 32.1182 24.4863 32.9326C24.4863 33.6006 24.3149 34.1382 23.9722 34.5454C23.6323 34.9526 23.1489 35.2017 22.522 35.2925L22.522 34.4487C23.3687 34.2905 23.792 33.7866 23.792 32.937C23.792 32.3716 23.5928 31.9424 23.1943 31.6494C22.7988 31.3594 22.2246 31.2129 21.4717 31.21L20.9487 31.21C20.231 31.21 19.6597 31.374 19.2349 31.7021C18.813 32.0303 18.602 32.4741 18.602 33.0337C18.602 33.3501 18.6372 33.627 18.7075 33.8643C18.7778 34.1016 18.8965 34.2979 19.0635 34.4531L20.5005 34.4531L20.5005 32.9722L21.186 32.9722L21.186 35.2925L18.8394 35.2925ZM18 36.7031L24.3984 36.7031L24.3984 38.7949C24.3984 39.4893 24.2549 40.0107 23.9678 40.3594C23.6807 40.7109 23.2559 40.8867 22.6934 40.8867C22.3945 40.8867 22.1294 40.8018 21.8979 40.6318C21.6694 40.4619 21.4922 40.2305 21.3662 39.9375C21.2695 40.2832 21.085 40.5557 20.8125 40.7549C20.543 40.957 20.2207 41.0581 19.8457 41.0581C19.2715 41.0581 18.8203 40.8721 18.4922 40.5C18.1641 40.1279 18 39.6021 18 38.9224L18 36.7031ZM20.9927 37.5469L18.6899 37.5469L18.6899 38.9399C18.6899 39.3325 18.791 39.6416 18.9932 39.8672C19.1982 40.0957 19.4795 40.21 19.8369 40.21C20.6074 40.21 20.9927 39.791 20.9927 38.9531L20.9927 37.5469ZM21.6694 37.5469L21.6694 38.8213C21.6694 39.1904 21.7617 39.4849 21.9463 39.7046C22.1309 39.9272 22.3813 40.0386 22.6978 40.0386C23.0493 40.0386 23.3042 39.936 23.4624 39.731C23.6235 39.5259 23.7041 39.2139 23.7041 38.7949L23.7041 37.5469L21.6694 37.5469Z" fill="#202932"/>
<rect x="31" y="12" width="4" height="32" fill="#202932"/>
</svg>
