<svg width="37" height="42" viewBox="0 0 37 42" fill="none" xmlns="http://www.w3.org/2000/svg">
<rect x="7.5" y="0.5" width="29" height="41" fill="#141616" stroke="#FF4654"/>
<rect x="0.5" y="12.5" width="28" height="15" fill="#141616" stroke="#FF4654"/>
<path d="M5.49453 24V16.85H6.26453V23.34H8.27753V24H5.49453ZM13.173 18.225V22.625C13.173 23.1163 13.0154 23.4977 12.7 23.769C12.392 24.033 11.9264 24.165 11.303 24.165C10.687 24.165 10.2214 24.033 9.90605 23.769C9.59071 23.4977 9.43305 23.1163 9.43305 22.625V18.225C9.43305 17.7337 9.58705 17.356 9.89505 17.092C10.2104 16.8207 10.676 16.685 11.292 16.685C11.9154 16.685 12.3847 16.8207 12.7 17.092C13.0154 17.356 13.173 17.7337 13.173 18.225ZM12.403 22.625V18.225C12.403 17.6383 12.0364 17.345 11.303 17.345C10.5697 17.345 10.203 17.6383 10.203 18.225V22.625C10.203 23.2117 10.5697 23.505 11.303 23.505C12.0364 23.505 12.403 23.2117 12.403 22.625ZM16.6685 21.03V20.37H18.6705V24H18.3405L18.0545 23.296C17.9005 23.56 17.6988 23.7727 17.4495 23.934C17.2001 24.088 16.9288 24.165 16.6355 24.165C15.5721 24.165 15.0405 23.6517 15.0405 22.625V18.225C15.0405 17.7337 15.1908 17.356 15.4915 17.092C15.7921 16.8207 16.2431 16.685 16.8445 16.685C17.4458 16.685 17.9005 16.8207 18.2085 17.092C18.5165 17.356 18.6705 17.7337 18.6705 18.225V18.83H17.9005V18.225C17.9005 17.6383 17.5521 17.345 16.8555 17.345C16.1588 17.345 15.8105 17.6383 15.8105 18.225V22.625C15.8105 22.9037 15.8691 23.12 15.9865 23.274C16.1038 23.428 16.3165 23.505 16.6245 23.505C16.9398 23.505 17.2295 23.3803 17.4935 23.131C17.7648 22.8817 17.9005 22.6397 17.9005 22.405V21.03H16.6685Z" fill="#FF4654"/>
</svg>
