<svg width="347" height="119" viewBox="0 0 347 119" fill="none" xmlns="http://www.w3.org/2000/svg">
<circle cx="65.0363" cy="59.8897" r="36.2431" transform="rotate(-90 65.0363 59.8897)" stroke="white" stroke-width="2.09473"/>
<path d="M39.0258 71.4717L16.0974 31.7584L61.9542 31.7584L39.0258 71.4717Z" fill="black" stroke="#FF4654" stroke-width="2.09338"/>
<path d="M87.9749 76.7837L65.0465 116.497L42.118 76.7837L87.9749 76.7837Z" fill="black" stroke="#FF4654" stroke-width="2.09338"/>
<path d="M68.1515 31.7146L114.008 31.7146L91.0799 71.4278L68.1515 31.7146Z" fill="black" stroke="#FF4654" stroke-width="2.09338"/>
<path d="M36.1706 43.3356L93.9565 43.3031L65.0354 93.3309L36.1706 43.3356Z" fill="black" stroke="#FF4654" stroke-width="2.09338"/>
<path d="M145.792 49.72V79H140.992V49.72H131.44V45.4H155.344V49.72H145.792ZM173.134 65.608H165.886V79H161.086V45.4H178.318L183.886 48.616V62.392L178.318 65.608L186.046 79H180.718L173.134 65.608ZM165.886 49.72V61.288H179.086V49.72H165.886ZM192.539 79V45.4H197.339V79H192.539ZM220.584 45.4L232.584 79H227.88L225.048 71.032H210.168L207.336 79H202.632L214.632 45.4H220.584ZM217.56 50.152L211.704 66.712H223.512L217.656 50.152H217.56ZM242.667 53.608V79H237.867V45.4H242.235L259.611 70.792H259.707V45.4H264.507V79H260.139L242.763 53.608H242.667ZM310.833 76.024L305.265 79.24H291.201L285.633 76.024V48.376L291.201 45.16H305.265L310.833 48.376V76.024ZM290.433 49.48V74.92H306.033V49.48H290.433ZM319.476 61.24V48.376L325.044 45.16H336.228L341.796 48.376V53.32H336.996V49.48H324.276V59.656H336.228L341.796 62.872V76.024L336.228 79.24H324.564L318.996 76.024V71.08H323.796V74.92H336.996V64.456H325.044L319.476 61.24Z" fill="#DF3D49"/>
<path d="M145.792 49.72V48.72H144.792V49.72H145.792ZM145.792 79V80H146.792V79H145.792ZM140.992 79H139.992V80H140.992V79ZM140.992 49.72H141.992V48.72H140.992V49.72ZM131.44 49.72H130.44V50.72H131.44V49.72ZM131.44 45.4V44.4H130.44V45.4H131.44ZM155.344 45.4H156.344V44.4H155.344V45.4ZM155.344 49.72V50.72H156.344V49.72H155.344ZM144.792 49.72V79H146.792V49.72H144.792ZM145.792 78H140.992V80H145.792V78ZM141.992 79V49.72H139.992V79H141.992ZM140.992 48.72H131.44V50.72H140.992V48.72ZM132.44 49.72V45.4H130.44V49.72H132.44ZM131.44 46.4H155.344V44.4H131.44V46.4ZM154.344 45.4V49.72H156.344V45.4H154.344ZM155.344 48.72H145.792V50.72H155.344V48.72ZM173.134 65.608L174.004 65.1152L173.717 64.608H173.134V65.608ZM165.886 65.608V64.608H164.886V65.608H165.886ZM165.886 79V80H166.886V79H165.886ZM161.086 79H160.086V80H161.086V79ZM161.086 45.4V44.4H160.086V45.4H161.086ZM178.318 45.4L178.818 44.5341L178.586 44.4H178.318V45.4ZM183.886 48.616H184.886V48.0388L184.386 47.7501L183.886 48.616ZM183.886 62.392L184.386 63.2579L184.886 62.9692V62.392H183.886ZM178.318 65.608L177.817 64.7421L176.952 65.242L177.451 66.1078L178.318 65.608ZM186.046 79V80H187.777L186.912 78.5002L186.046 79ZM180.718 79L179.847 79.4928L180.135 80H180.718V79ZM165.886 49.72V48.72H164.886V49.72H165.886ZM165.886 61.288H164.886V62.288H165.886V61.288ZM179.086 61.288V62.288H180.086V61.288H179.086ZM179.086 49.72H180.086V48.72H179.086V49.72ZM173.134 64.608H165.886V66.608H173.134V64.608ZM164.886 65.608V79H166.886V65.608H164.886ZM165.886 78H161.086V80H165.886V78ZM162.086 79V45.4H160.086V79H162.086ZM161.086 46.4H178.318V44.4H161.086V46.4ZM177.817 46.2659L183.385 49.4819L184.386 47.7501L178.818 44.5341L177.817 46.2659ZM182.886 48.616V62.392H184.886V48.616H182.886ZM183.385 61.5261L177.817 64.7421L178.818 66.4739L184.386 63.2579L183.385 61.5261ZM177.451 66.1078L185.179 79.4998L186.912 78.5002L179.184 65.1082L177.451 66.1078ZM186.046 78H180.718V80H186.046V78ZM181.588 78.5072L174.004 65.1152L172.263 66.1008L179.847 79.4928L181.588 78.5072ZM164.886 49.72V61.288H166.886V49.72H164.886ZM165.886 62.288H179.086V60.288H165.886V62.288ZM180.086 61.288V49.72H178.086V61.288H180.086ZM179.086 48.72H165.886V50.72H179.086V48.72ZM192.539 79H191.539V80H192.539V79ZM192.539 45.4V44.4H191.539V45.4H192.539ZM197.339 45.4H198.339V44.4H197.339V45.4ZM197.339 79V80H198.339V79H197.339ZM193.539 79V45.4H191.539V79H193.539ZM192.539 46.4H197.339V44.4H192.539V46.4ZM196.339 45.4V79H198.339V45.4H196.339ZM197.339 78H192.539V80H197.339V78ZM220.584 45.4L221.526 45.0637L221.289 44.4H220.584V45.4ZM232.584 79V80H234.003L233.526 78.6637L232.584 79ZM227.88 79L226.938 79.3349L227.174 80H227.88V79ZM225.048 71.032L225.99 70.6971L225.754 70.032H225.048V71.032ZM210.168 71.032V70.032H209.462L209.226 70.6971L210.168 71.032ZM207.336 79V80H208.042L208.278 79.3349L207.336 79ZM202.632 79L201.69 78.6637L201.213 80H202.632V79ZM214.632 45.4V44.4H213.927L213.69 45.0637L214.632 45.4ZM217.56 50.152V49.152H216.853L216.617 49.8186L217.56 50.152ZM211.704 66.712L210.761 66.3786L210.29 67.712H211.704V66.712ZM223.512 66.712V67.712H224.926L224.455 66.3786L223.512 66.712ZM217.656 50.152L218.599 49.8186L218.363 49.152H217.656V50.152ZM219.642 45.7363L231.642 79.3363L233.526 78.6637L221.526 45.0637L219.642 45.7363ZM232.584 78H227.88V80H232.584V78ZM228.822 78.6651L225.99 70.6971L224.106 71.3669L226.938 79.3349L228.822 78.6651ZM225.048 70.032H210.168V72.032H225.048V70.032ZM209.226 70.6971L206.394 78.6651L208.278 79.3349L211.11 71.3669L209.226 70.6971ZM207.336 78H202.632V80H207.336V78ZM203.574 79.3363L215.574 45.7363L213.69 45.0637L201.69 78.6637L203.574 79.3363ZM214.632 46.4H220.584V44.4H214.632V46.4ZM216.617 49.8186L210.761 66.3786L212.647 67.0454L218.503 50.4854L216.617 49.8186ZM211.704 67.712H223.512V65.712H211.704V67.712ZM224.455 66.3786L218.599 49.8186L216.713 50.4854L222.569 67.0454L224.455 66.3786ZM217.656 49.152H217.56V51.152H217.656V49.152ZM242.667 53.608V52.608H241.667V53.608H242.667ZM242.667 79V80H243.667V79H242.667ZM237.867 79H236.867V80H237.867V79ZM237.867 45.4V44.4H236.867V45.4H237.867ZM242.235 45.4L243.06 44.8353L242.762 44.4H242.235V45.4ZM259.611 70.792L258.786 71.3567L259.083 71.792H259.611V70.792ZM259.707 70.792V71.792H260.707V70.792H259.707ZM259.707 45.4V44.4H258.707V45.4H259.707ZM264.507 45.4H265.507V44.4H264.507V45.4ZM264.507 79V80H265.507V79H264.507ZM260.139 79L259.314 79.5647L259.611 80H260.139V79ZM242.763 53.608L243.588 53.0433L243.29 52.608H242.763V53.608ZM241.667 53.608V79H243.667V53.608H241.667ZM242.667 78H237.867V80H242.667V78ZM238.867 79V45.4H236.867V79H238.867ZM237.867 46.4H242.235V44.4H237.867V46.4ZM241.41 45.9647L258.786 71.3567L260.436 70.2273L243.06 44.8353L241.41 45.9647ZM259.611 71.792H259.707V69.792H259.611V71.792ZM260.707 70.792V45.4H258.707V70.792H260.707ZM259.707 46.4H264.507V44.4H259.707V46.4ZM263.507 45.4V79H265.507V45.4H263.507ZM264.507 78H260.139V80H264.507V78ZM260.964 78.4353L243.588 53.0433L241.938 54.1727L259.314 79.5647L260.964 78.4353ZM242.763 52.608H242.667V54.608H242.763V52.608ZM310.833 76.024L311.333 76.8899L311.833 76.6012V76.024H310.833ZM305.265 79.24V80.24H305.533L305.765 80.1059L305.265 79.24ZM291.201 79.24L290.7 80.1059L290.932 80.24H291.201V79.24ZM285.633 76.024H284.633V76.6012L285.132 76.8899L285.633 76.024ZM285.633 48.376L285.132 47.5101L284.633 47.7988V48.376H285.633ZM291.201 45.16V44.16H290.932L290.7 44.2941L291.201 45.16ZM305.265 45.16L305.765 44.2941L305.533 44.16H305.265V45.16ZM310.833 48.376H311.833V47.7988L311.333 47.5101L310.833 48.376ZM290.433 49.48V48.48H289.433V49.48H290.433ZM290.433 74.92H289.433V75.92H290.433V74.92ZM306.033 74.92V75.92H307.033V74.92H306.033ZM306.033 49.48H307.033V48.48H306.033V49.48ZM310.332 75.1581L304.764 78.3741L305.765 80.1059L311.333 76.8899L310.332 75.1581ZM305.265 78.24H291.201V80.24H305.265V78.24ZM291.701 78.3741L286.133 75.1581L285.132 76.8899L290.7 80.1059L291.701 78.3741ZM286.633 76.024V48.376H284.633V76.024H286.633ZM286.133 49.2419L291.701 46.0259L290.7 44.2941L285.132 47.5101L286.133 49.2419ZM291.201 46.16H305.265V44.16H291.201V46.16ZM304.764 46.0259L310.332 49.2419L311.333 47.5101L305.765 44.2941L304.764 46.0259ZM309.833 48.376V76.024H311.833V48.376H309.833ZM289.433 49.48V74.92H291.433V49.48H289.433ZM290.433 75.92H306.033V73.92H290.433V75.92ZM307.033 74.92V49.48H305.033V74.92H307.033ZM306.033 48.48H290.433V50.48H306.033V48.48ZM319.476 61.24H318.476V61.8172L318.976 62.1059L319.476 61.24ZM319.476 48.376L318.976 47.5101L318.476 47.7988V48.376H319.476ZM325.044 45.16V44.16H324.776L324.544 44.2941L325.044 45.16ZM336.228 45.16L336.728 44.2941L336.496 44.16H336.228V45.16ZM341.796 48.376H342.796V47.7988L342.296 47.5101L341.796 48.376ZM341.796 53.32V54.32H342.796V53.32H341.796ZM336.996 53.32H335.996V54.32H336.996V53.32ZM336.996 49.48H337.996V48.48H336.996V49.48ZM324.276 49.48V48.48H323.276V49.48H324.276ZM324.276 59.656H323.276V60.656H324.276V59.656ZM336.228 59.656L336.728 58.7901L336.496 58.656H336.228V59.656ZM341.796 62.872H342.796V62.2948L342.296 62.0061L341.796 62.872ZM341.796 76.024L342.296 76.8899L342.796 76.6012V76.024H341.796ZM336.228 79.24V80.24H336.496L336.728 80.1059L336.228 79.24ZM324.564 79.24L324.064 80.1059L324.296 80.24H324.564V79.24ZM318.996 76.024H317.996V76.6012L318.496 76.8899L318.996 76.024ZM318.996 71.08V70.08H317.996V71.08H318.996ZM323.796 71.08H324.796V70.08H323.796V71.08ZM323.796 74.92H322.796V75.92H323.796V74.92ZM336.996 74.92V75.92H337.996V74.92H336.996ZM336.996 64.456H337.996V63.456H336.996V64.456ZM325.044 64.456L324.544 65.3219L324.776 65.456H325.044V64.456ZM320.476 61.24V48.376H318.476V61.24H320.476ZM319.976 49.2419L325.544 46.0259L324.544 44.2941L318.976 47.5101L319.976 49.2419ZM325.044 46.16H336.228V44.16H325.044V46.16ZM335.728 46.0259L341.296 49.2419L342.296 47.5101L336.728 44.2941L335.728 46.0259ZM340.796 48.376V53.32H342.796V48.376H340.796ZM341.796 52.32H336.996V54.32H341.796V52.32ZM337.996 53.32V49.48H335.996V53.32H337.996ZM336.996 48.48H324.276V50.48H336.996V48.48ZM323.276 49.48V59.656H325.276V49.48H323.276ZM324.276 60.656H336.228V58.656H324.276V60.656ZM335.728 60.5219L341.296 63.7379L342.296 62.0061L336.728 58.7901L335.728 60.5219ZM340.796 62.872V76.024H342.796V62.872H340.796ZM341.296 75.1581L335.728 78.3741L336.728 80.1059L342.296 76.8899L341.296 75.1581ZM336.228 78.24H324.564V80.24H336.228V78.24ZM325.064 78.3741L319.496 75.1581L318.496 76.8899L324.064 80.1059L325.064 78.3741ZM319.996 76.024V71.08H317.996V76.024H319.996ZM318.996 72.08H323.796V70.08H318.996V72.08ZM322.796 71.08V74.92H324.796V71.08H322.796ZM323.796 75.92H336.996V73.92H323.796V75.92ZM337.996 74.92V64.456H335.996V74.92H337.996ZM336.996 63.456H325.044V65.456H336.996V63.456ZM325.544 63.5901L319.976 60.3741L318.976 62.1059L324.544 65.3219L325.544 63.5901Z" fill="black"/>
</svg>
