<svg width="75" height="89" viewBox="0 0 75 89" fill="none" xmlns="http://www.w3.org/2000/svg">
<rect width="69" height="12" fill="#FF4654"/>
<path d="M75 12L69 0V12H75Z" fill="#FF4654"/>
<rect y="12" width="75" height="77" fill="#FF4654"/>
<path d="M37.6864 75.6522L26.7336 56.6814L48.6392 56.6814L37.6864 75.6522Z" fill="#FF4654" stroke="#0F1923"/>
<path d="M24.6425 53.2897L13.6896 34.3189L35.5953 34.3189L24.6425 53.2897Z" fill="#FF4654" stroke="#0F1923"/>
<path d="M50.5309 53.4049L39.5781 34.4341L61.4837 34.4341L50.5309 53.4049Z" fill="#FF4654" stroke="#0F1923"/>
<path d="M37.1564 60.5147L26.2036 41.5438L48.1092 41.5438L37.1564 60.5147Z" fill="#FF4654" stroke="#0F1923"/>
<path d="M37.8047 6.83105C37.8047 7.48535 37.6908 8.0599 37.4629 8.55469C37.2383 9.04948 36.916 9.43034 36.4961 9.69727C36.0762 9.96419 35.5911 10.0977 35.041 10.0977C34.2109 10.0977 33.5404 9.80143 33.0293 9.20898C32.5182 8.61328 32.2627 7.81087 32.2627 6.80176V6.06934C32.2627 5.42155 32.3766 4.84863 32.6045 4.35059C32.8356 3.84928 33.1611 3.46517 33.5811 3.19824C34.001 2.92806 34.4844 2.79297 35.0312 2.79297C35.5781 2.79297 36.0599 2.9248 36.4766 3.18848C36.8965 3.45215 37.2204 3.82487 37.4482 4.30664C37.6761 4.78841 37.7949 5.34668 37.8047 5.98145V6.83105ZM37.2041 6.05957C37.2041 5.20345 37.0104 4.53288 36.623 4.04785C36.2357 3.56283 35.7051 3.32031 35.0312 3.32031C34.3704 3.32031 33.8431 3.56445 33.4492 4.05273C33.0586 4.53776 32.8633 5.21647 32.8633 6.08887V6.83105C32.8633 7.67415 33.0586 8.3431 33.4492 8.83789C33.8398 9.32943 34.3704 9.5752 35.041 9.5752C35.7214 9.5752 36.252 9.33268 36.6328 8.84766C37.0137 8.35938 37.2041 7.68066 37.2041 6.81152V6.05957ZM43.3418 8.25195C43.3418 7.85807 43.2035 7.5472 42.9268 7.31934C42.6501 7.08822 42.1439 6.87012 41.4082 6.66504C40.6725 6.45671 40.1354 6.23047 39.7969 5.98633C39.3151 5.64128 39.0742 5.1888 39.0742 4.62891C39.0742 4.08529 39.2972 3.64421 39.7432 3.30566C40.1924 2.96387 40.7653 2.79297 41.4619 2.79297C41.9339 2.79297 42.3555 2.88411 42.7266 3.06641C43.1009 3.2487 43.3906 3.5026 43.5957 3.82812C43.8008 4.15365 43.9033 4.5166 43.9033 4.91699H43.2979C43.2979 4.43197 43.1318 4.04297 42.7998 3.75C42.4678 3.45378 42.0218 3.30566 41.4619 3.30566C40.9183 3.30566 40.4854 3.42773 40.1631 3.67188C39.8408 3.91276 39.6797 4.22852 39.6797 4.61914C39.6797 4.98047 39.8245 5.27507 40.1143 5.50293C40.404 5.73079 40.8678 5.93262 41.5059 6.1084C42.1439 6.28092 42.6273 6.46159 42.9561 6.65039C43.2848 6.83594 43.5322 7.05892 43.6982 7.31934C43.8643 7.57975 43.9473 7.88737 43.9473 8.24219C43.9473 8.80208 43.7227 9.2513 43.2734 9.58984C42.8275 9.92839 42.2383 10.0977 41.5059 10.0977C41.0046 10.0977 40.5439 10.0081 40.124 9.8291C39.7074 9.65007 39.39 9.39941 39.1719 9.07715C38.957 8.75488 38.8496 8.38542 38.8496 7.96875H39.4502C39.4502 8.47005 39.6374 8.86556 40.0117 9.15527C40.3861 9.44499 40.8841 9.58984 41.5059 9.58984C42.0592 9.58984 42.5036 9.46777 42.8389 9.22363C43.1742 8.97949 43.3418 8.6556 43.3418 8.25195Z" fill="#AED2F5"/>
</svg>
