<svg width="375" height="16" viewBox="0 0 375 16" fill="none" xmlns="http://www.w3.org/2000/svg">
<rect width="1" height="5" transform="matrix(1 0 0 -1 0 5)" fill="#0F1923"/>
<rect x="188" y="5" width="11" height="188" transform="rotate(90 188 5)" fill="#0F1923"/>
<rect x="198" y="11" width="5" height="10" transform="rotate(90 198 11)" fill="#0F1923"/>
<rect x="375" y="5" width="6.00001" height="165" transform="rotate(90 375 5)" fill="#0F1923"/>
<path d="M210 11L198 5L210 5L210 11Z" fill="#0F1923"/>
<path d="M198 10L210 16L198 16L198 10Z" fill="#0F1923"/>
<path d="M188 5L200 11L188 11L188 5Z" fill="#0F1923"/>
<rect width="1" height="5" transform="matrix(1 0 0 -1 0 5)" fill="#0F1923"/>
<rect x="188" y="5" width="11" height="188" transform="rotate(90 188 5)" fill="#0F1923"/>
<rect x="198" y="11" width="5" height="10" transform="rotate(90 198 11)" fill="#0F1923"/>
<rect x="375" y="5" width="6.00001" height="165" transform="rotate(90 375 5)" fill="#0F1923"/>
<path d="M210 11L198 5L210 5L210 11Z" fill="#0F1923"/>
<path d="M198 10L210 16L198 16L198 10Z" fill="#0F1923"/>
<path d="M188 5L200 11L188 11L188 5Z" fill="#0F1923"/>
<rect width="1" height="5" transform="matrix(1 0 0 -1 0 5)" fill="#0F1923"/>
</svg>
