<svg width="375" height="22" viewBox="0 0 375 22" fill="none" xmlns="http://www.w3.org/2000/svg">
<rect width="11" height="375" transform="matrix(-1.31134e-07 -1 -1 1.31134e-07 375 22.0002)" fill="#0F1923"/>
<rect y="11" width="11" height="188" transform="rotate(-90 0 11)" fill="#FF4654"/>
<path d="M375 11L375 5.43594e-05L188 -4.09038e-07L188 11L375 11Z" fill="#FF4654"/>
<rect y="22.0002" width="11" height="63" transform="rotate(-90 0 22.0002)" fill="#FF4654"/>
<rect width="11" height="63" transform="matrix(-4.37114e-08 -1 -1 4.37114e-08 126 22.0002)" fill="#FF4654"/>
<rect y="11" width="11" height="63" transform="rotate(-90 0 11)" fill="#FF4654"/>
<rect width="11" height="85" transform="matrix(-5.0209e-08 -1 -1 3.80546e-08 148 11.0002)" fill="#FF4654"/>
<rect width="5" height="10" transform="matrix(-4.37114e-08 -1 -1 4.37114e-08 136 16.0002)" fill="#FF4654"/>
<path d="M136 17.0002L148 11.0002L136 11.0002L136 17.0002Z" fill="#FF4654"/>
<path d="M126 22.0002L138 16.0002L126 16.0002L126 22.0002Z" fill="#FF4654"/>
<path d="M22.8291 16V6.04688H25.7686C26.835 6.04688 27.6439 6.2679 28.1953 6.70996C28.7467 7.14746 29.0225 7.7946 29.0225 8.65137C29.0225 9.16634 28.8812 9.61523 28.5986 9.99805C28.3206 10.3763 27.9378 10.6475 27.4502 10.8115C28.029 10.9391 28.4938 11.224 28.8447 11.666C29.2002 12.1081 29.3779 12.6185 29.3779 13.1973C29.3779 14.0768 29.0931 14.765 28.5234 15.2617C27.9583 15.7539 27.1699 16 26.1582 16H22.8291ZM23.6699 11.2148V15.2891H26.1924C26.9124 15.2891 27.4821 15.1068 27.9014 14.7422C28.3252 14.373 28.5371 13.8626 28.5371 13.2109C28.5371 12.5957 28.3343 12.1104 27.9287 11.7549C27.5277 11.3949 26.9717 11.2148 26.2607 11.2148H23.6699ZM23.6699 10.5107H25.9668C26.6686 10.4971 27.2109 10.333 27.5938 10.0186C27.9811 9.69954 28.1748 9.23698 28.1748 8.63086C28.1748 7.99284 27.9743 7.52344 27.5732 7.22266C27.1768 6.91732 26.5752 6.76465 25.7686 6.76465H23.6699V10.5107ZM33.9512 11.4746L36.9932 6.04688H37.9639L34.3682 12.2539V16H33.5273V12.2539L29.9385 6.04688H30.9365L33.9512 11.4746ZM40.2539 11.9463V16H39.4131V6.04688H42.8037C43.8382 6.04688 44.654 6.3112 45.251 6.83984C45.8525 7.36849 46.1533 8.09538 46.1533 9.02051C46.1533 9.95475 45.8639 10.6771 45.2852 11.1875C44.7109 11.6934 43.877 11.9463 42.7832 11.9463H40.2539ZM40.2539 11.2354H42.8037C43.6195 11.2354 44.2415 11.0417 44.6699 10.6543C45.0983 10.2669 45.3125 9.72689 45.3125 9.03418C45.3125 8.34603 45.0983 7.79915 44.6699 7.39355C44.2461 6.9834 43.6423 6.77376 42.8584 6.76465H40.2539V11.2354ZM52.4697 13.2109H47.9512L46.9258 16H46.0439L49.8105 6.04688H50.6104L54.377 16H53.502L52.4697 13.2109ZM48.2109 12.4932H52.2031L50.207 7.07227L48.2109 12.4932ZM61.4795 13.5527C61.4795 13.0013 61.2858 12.5661 60.8984 12.2471C60.5111 11.9235 59.8024 11.6182 58.7725 11.3311C57.7425 11.0394 56.9906 10.7227 56.5166 10.3809C55.8421 9.89779 55.5049 9.26432 55.5049 8.48047C55.5049 7.7194 55.8171 7.10189 56.4414 6.62793C57.0703 6.14941 57.8724 5.91016 58.8477 5.91016C59.5085 5.91016 60.0986 6.03776 60.6182 6.29297C61.1423 6.54818 61.5479 6.90365 61.835 7.35938C62.1221 7.8151 62.2656 8.32324 62.2656 8.88379H61.418C61.418 8.20475 61.1855 7.66016 60.7207 7.25C60.2559 6.83529 59.6315 6.62793 58.8477 6.62793C58.0866 6.62793 57.4805 6.79883 57.0293 7.14062C56.5781 7.47786 56.3525 7.91992 56.3525 8.4668C56.3525 8.97266 56.5553 9.38509 56.9609 9.7041C57.3665 10.0231 58.016 10.3057 58.9092 10.5518C59.8024 10.7933 60.4792 11.0462 60.9395 11.3105C61.3997 11.5703 61.7461 11.8825 61.9785 12.2471C62.2109 12.6117 62.3271 13.0423 62.3271 13.5391C62.3271 14.3229 62.0127 14.9518 61.3838 15.4258C60.7594 15.8997 59.9346 16.1367 58.9092 16.1367C58.2074 16.1367 57.5625 16.0114 56.9746 15.7607C56.3913 15.5101 55.9469 15.1592 55.6416 14.708C55.3408 14.2568 55.1904 13.7396 55.1904 13.1562H56.0312C56.0312 13.8581 56.2933 14.4118 56.8174 14.8174C57.3415 15.223 58.0387 15.4258 58.9092 15.4258C59.6839 15.4258 60.306 15.2549 60.7754 14.9131C61.2448 14.5713 61.4795 14.1178 61.4795 13.5527ZM69.7783 13.5527C69.7783 13.0013 69.5846 12.5661 69.1973 12.2471C68.8099 11.9235 68.1012 11.6182 67.0713 11.3311C66.0413 11.0394 65.2894 10.7227 64.8154 10.3809C64.141 9.89779 63.8037 9.26432 63.8037 8.48047C63.8037 7.7194 64.1159 7.10189 64.7402 6.62793C65.3691 6.14941 66.1712 5.91016 67.1465 5.91016C67.8073 5.91016 68.3975 6.03776 68.917 6.29297C69.4411 6.54818 69.8467 6.90365 70.1338 7.35938C70.4209 7.8151 70.5645 8.32324 70.5645 8.88379H69.7168C69.7168 8.20475 69.4844 7.66016 69.0195 7.25C68.5547 6.83529 67.9303 6.62793 67.1465 6.62793C66.3854 6.62793 65.7793 6.79883 65.3281 7.14062C64.877 7.47786 64.6514 7.91992 64.6514 8.4668C64.6514 8.97266 64.8542 9.38509 65.2598 9.7041C65.6654 10.0231 66.3148 10.3057 67.208 10.5518C68.1012 10.7933 68.778 11.0462 69.2383 11.3105C69.6986 11.5703 70.0449 11.8825 70.2773 12.2471C70.5098 12.6117 70.626 13.0423 70.626 13.5391C70.626 14.3229 70.3115 14.9518 69.6826 15.4258C69.0583 15.8997 68.2334 16.1367 67.208 16.1367C66.5062 16.1367 65.8613 16.0114 65.2734 15.7607C64.6901 15.5101 64.2458 15.1592 63.9404 14.708C63.6396 14.2568 63.4893 13.7396 63.4893 13.1562H64.3301C64.3301 13.8581 64.5921 14.4118 65.1162 14.8174C65.6403 15.223 66.3376 15.4258 67.208 15.4258C67.9827 15.4258 68.6048 15.2549 69.0742 14.9131C69.5436 14.5713 69.7783 14.1178 69.7783 13.5527ZM73.4697 16H72.6289V6.04688H73.4697V16ZM83.5869 16H82.7461L77.0244 7.48242V16H76.1768V6.04688H77.0244L82.7529 14.5713V6.04688H83.5869V16ZM93.3008 14.8174C93.0091 15.2321 92.5511 15.5557 91.9268 15.7881C91.307 16.0205 90.612 16.1367 89.8418 16.1367C89.0625 16.1367 88.3698 15.9499 87.7637 15.5762C87.1576 15.2025 86.6882 14.6738 86.3555 13.9902C86.0228 13.3066 85.8542 12.5228 85.8496 11.6387V10.3809C85.8496 9 86.1982 7.91081 86.8955 7.11328C87.5928 6.3112 88.5293 5.91016 89.7051 5.91016C90.7305 5.91016 91.5553 6.1722 92.1797 6.69629C92.804 7.21582 93.1755 7.93359 93.2939 8.84961H92.4531C92.3301 8.12044 92.0316 7.56901 91.5576 7.19531C91.0882 6.81706 90.473 6.62793 89.7119 6.62793C88.7822 6.62793 88.0462 6.95833 87.5039 7.61914C86.9616 8.27995 86.6904 9.21191 86.6904 10.415V11.5908C86.6904 12.3473 86.818 13.0173 87.0732 13.6006C87.333 14.1794 87.7021 14.6283 88.1807 14.9473C88.6637 15.2663 89.2174 15.4258 89.8418 15.4258C90.5664 15.4258 91.1885 15.3118 91.708 15.084C92.0452 14.9336 92.2959 14.7581 92.46 14.5576V11.9873H89.7871V11.2764H93.3008V14.8174Z" fill="#0F1923"/>
<path d="M171.542 18.0049C171.469 18.6787 171.228 19.1943 170.817 19.5518C170.41 19.9092 169.867 20.0879 169.187 20.0879C168.712 20.0879 168.292 19.9692 167.926 19.7319C167.562 19.4946 167.281 19.1592 167.082 18.7256C166.883 18.2891 166.782 17.791 166.779 17.2314V16.4009C166.779 15.8325 166.878 15.3286 167.078 14.8892C167.277 14.4497 167.562 14.1113 167.935 13.874C168.31 13.6338 168.74 13.5137 169.227 13.5137C169.912 13.5137 170.453 13.6997 170.848 14.0718C171.247 14.4409 171.478 14.9521 171.542 15.6055H170.998C170.863 14.5186 170.272 13.9751 169.227 13.9751C168.646 13.9751 168.184 14.1919 167.838 14.6255C167.495 15.0591 167.324 15.6582 167.324 16.4229V17.2051C167.324 17.9434 167.491 18.5322 167.825 18.9717C168.162 19.4111 168.616 19.6309 169.187 19.6309C169.752 19.6309 170.179 19.4961 170.466 19.2266C170.753 18.9541 170.93 18.5469 170.998 18.0049H171.542ZM175.247 17.3369H173.388V20H172.843V13.6016H174.922C175.604 13.6016 176.138 13.7671 176.521 14.0981C176.905 14.4292 177.097 14.8921 177.097 15.4868C177.097 15.897 176.977 16.2588 176.737 16.5723C176.497 16.8857 176.174 17.1025 175.77 17.2227L177.37 19.9429V20H176.794L175.247 17.3369ZM173.388 16.8755H175.045C175.499 16.8755 175.864 16.7466 176.139 16.4888C176.415 16.231 176.552 15.897 176.552 15.4868C176.552 15.0356 176.409 14.6855 176.122 14.4365C175.834 14.1875 175.432 14.063 174.913 14.063H173.388V16.8755ZM182.023 18.207H179.119L178.459 20H177.893L180.314 13.6016H180.828L183.25 20H182.687L182.023 18.207ZM179.286 17.7456H181.852L180.569 14.2607L179.286 17.7456ZM188.672 18.0049C188.599 18.6787 188.357 19.1943 187.947 19.5518C187.54 19.9092 186.997 20.0879 186.317 20.0879C185.842 20.0879 185.422 19.9692 185.056 19.7319C184.692 19.4946 184.411 19.1592 184.212 18.7256C184.013 18.2891 183.912 17.791 183.909 17.2314V16.4009C183.909 15.8325 184.008 15.3286 184.208 14.8892C184.407 14.4497 184.692 14.1113 185.064 13.874C185.439 13.6338 185.87 13.5137 186.356 13.5137C187.042 13.5137 187.583 13.6997 187.978 14.0718C188.376 14.4409 188.608 14.9521 188.672 15.6055H188.127C187.993 14.5186 187.402 13.9751 186.356 13.9751C185.776 13.9751 185.313 14.1919 184.968 14.6255C184.625 15.0591 184.454 15.6582 184.454 16.4229V17.2051C184.454 17.9434 184.621 18.5322 184.955 18.9717C185.292 19.4111 185.746 19.6309 186.317 19.6309C186.882 19.6309 187.309 19.4961 187.596 19.2266C187.883 18.9541 188.06 18.5469 188.127 18.0049H188.672ZM191.428 16.8228L190.527 17.7104V20H189.986V13.6016H190.527V17.0513L193.805 13.6016H194.486L191.806 16.4492L194.693 20H194.034L191.428 16.8228ZM196.323 20H195.783V13.6016H196.323V20ZM202.827 20H202.287L198.608 14.5244V20H198.063V13.6016H198.608L202.291 19.0815V13.6016H202.827V20ZM209.072 19.2397C208.884 19.5063 208.59 19.7144 208.188 19.8638C207.79 20.0132 207.343 20.0879 206.848 20.0879C206.347 20.0879 205.902 19.9678 205.512 19.7275C205.123 19.4873 204.821 19.1475 204.607 18.708C204.393 18.2686 204.285 17.7646 204.282 17.1963V16.3877C204.282 15.5 204.506 14.7998 204.954 14.2871C205.402 13.7715 206.004 13.5137 206.76 13.5137C207.419 13.5137 207.95 13.6821 208.351 14.019C208.752 14.353 208.991 14.8145 209.067 15.4033H208.527C208.448 14.9346 208.256 14.5801 207.951 14.3398C207.649 14.0967 207.254 13.9751 206.765 13.9751C206.167 13.9751 205.694 14.1875 205.345 14.6123C204.997 15.0371 204.822 15.6362 204.822 16.4097V17.1655C204.822 17.6519 204.904 18.0825 205.068 18.4575C205.235 18.8296 205.473 19.1182 205.78 19.3232C206.091 19.5283 206.447 19.6309 206.848 19.6309C207.314 19.6309 207.714 19.5576 208.048 19.4111C208.265 19.3145 208.426 19.2017 208.531 19.0728V17.4204H206.813V16.9634H209.072V19.2397Z" fill="#AED2F5"/>
<path d="M300.272 20H299.731L296.053 14.5244V20H295.508V13.6016H296.053L299.736 19.0815V13.6016H300.272V20ZM305.431 16.9326H302.438V19.543H305.879V20H301.898V13.6016H305.857V14.063H302.438V16.4756H305.431V16.9326ZM311.452 14.063H309.259V20H308.718V14.063H306.53V13.6016H311.452V14.063ZM313.741 18.2729L313.939 19.2661L314.181 18.3169L315.569 13.6016H316.057L317.428 18.3169L317.666 19.2749L317.876 18.2729L319.032 13.6016H319.586L317.947 20H317.428L315.978 14.9946L315.815 14.3618L315.657 14.9946L314.172 20H313.653L312.019 13.6016H312.572L313.741 18.2729ZM325.356 17.1479C325.356 17.7368 325.253 18.2539 325.048 18.6992C324.846 19.1445 324.556 19.4873 324.178 19.7275C323.8 19.9678 323.364 20.0879 322.869 20.0879C322.122 20.0879 321.518 19.8213 321.058 19.2881C320.598 18.752 320.368 18.0298 320.368 17.1216V16.4624C320.368 15.8794 320.471 15.3638 320.676 14.9155C320.884 14.4644 321.177 14.1187 321.555 13.8784C321.933 13.6353 322.368 13.5137 322.86 13.5137C323.352 13.5137 323.786 13.6323 324.161 13.8696C324.539 14.1069 324.83 14.4424 325.035 14.876C325.24 15.3096 325.347 15.812 325.356 16.3833V17.1479ZM324.815 16.4536C324.815 15.6831 324.641 15.0796 324.292 14.6431C323.944 14.2065 323.466 13.9883 322.86 13.9883C322.265 13.9883 321.791 14.208 321.436 14.6475C321.084 15.084 320.909 15.6948 320.909 16.48V17.1479C320.909 17.9067 321.084 18.5088 321.436 18.9541C321.788 19.3965 322.265 19.6177 322.869 19.6177C323.481 19.6177 323.958 19.3994 324.301 18.9629C324.644 18.5234 324.815 17.9126 324.815 17.1304V16.4536ZM329.109 17.3369H327.25V20H326.705V13.6016H328.784C329.466 13.6016 330 13.7671 330.383 14.0981C330.767 14.4292 330.959 14.8921 330.959 15.4868C330.959 15.897 330.839 16.2588 330.599 16.5723C330.358 16.8857 330.036 17.1025 329.632 17.2227L331.231 19.9429V20H330.656L329.109 17.3369ZM327.25 16.8755H328.907C329.361 16.8755 329.726 16.7466 330.001 16.4888C330.276 16.231 330.414 15.897 330.414 15.4868C330.414 15.0356 330.271 14.6855 329.983 14.4365C329.696 14.1875 329.293 14.063 328.775 14.063H327.25V16.8755ZM333.873 16.8228L332.972 17.7104V20H332.431V13.6016H332.972V17.0513L336.25 13.6016H336.931L334.25 16.4492L337.138 20H336.479L333.873 16.8228Z" fill="#AED2F5"/>
</svg>
