<svg width="375" height="22" viewBox="0 0 375 22" fill="none" xmlns="http://www.w3.org/2000/svg">
<rect width="11" height="375" transform="matrix(-1.31134e-07 -1 -1 1.31134e-07 375 22.0002)" fill="#0F1923"/>
<rect y="11" width="11" height="188" transform="rotate(-90 0 11)" fill="#FF4654"/>
<path d="M375 11L375 5.43594e-05L188 -4.09038e-07L188 11L375 11Z" fill="#FF4654"/>
<rect x="124" y="22" width="11" height="63" transform="rotate(-90 124 22)" fill="#FF4654"/>
<rect x="114" y="16" width="5" height="10" transform="rotate(-90 114 16)" fill="#FF4654"/>
<path d="M114 17L102 11L114 11L114 17Z" fill="#FF4654"/>
<path d="M124 22L112 16L124 16L124 22Z" fill="#FF4654"/>
<rect width="11" height="63" transform="matrix(-4.37114e-08 -1 -1 4.37114e-08 250 22)" fill="#FF4654"/>
<rect x="102" y="11" width="11" height="85" transform="rotate(-90 102 11)" fill="#FF4654"/>
<rect width="11" height="85" transform="matrix(-5.0209e-08 -1 -1 3.80546e-08 272 11)" fill="#FF4654"/>
<rect width="5" height="10" transform="matrix(-4.37114e-08 -1 -1 4.37114e-08 260 16)" fill="#FF4654"/>
<path d="M260 17L272 11L260 11L260 17Z" fill="#FF4654"/>
<path d="M250 22L262 16L250 16L250 22Z" fill="#FF4654"/>
<path d="M161.399 12.8965C161.285 13.9447 160.91 14.7467 160.271 15.3027C159.638 15.8587 158.793 16.1367 157.735 16.1367C156.997 16.1367 156.343 15.9521 155.773 15.583C155.208 15.2139 154.771 14.6921 154.461 14.0176C154.151 13.3385 153.994 12.5638 153.989 11.6934V10.4014C153.989 9.51725 154.144 8.7334 154.454 8.0498C154.764 7.36621 155.208 6.83984 155.787 6.4707C156.37 6.09701 157.04 5.91016 157.797 5.91016C158.863 5.91016 159.704 6.19954 160.319 6.77832C160.939 7.35254 161.299 8.14779 161.399 9.16406H160.552C160.342 7.47331 159.424 6.62793 157.797 6.62793C156.895 6.62793 156.174 6.96517 155.637 7.63965C155.104 8.31413 154.837 9.24609 154.837 10.4355V11.6523C154.837 12.8008 155.097 13.7168 155.616 14.4004C156.14 15.084 156.847 15.4258 157.735 15.4258C158.615 15.4258 159.278 15.2161 159.725 14.7969C160.171 14.373 160.447 13.7396 160.552 12.8965H161.399ZM167.162 11.8574H164.271V16H163.423V6.04688H166.656C167.718 6.04688 168.548 6.30436 169.145 6.81934C169.742 7.33431 170.04 8.05436 170.04 8.97949C170.04 9.61751 169.853 10.1803 169.479 10.668C169.106 11.1556 168.604 11.4928 167.976 11.6797L170.464 15.9111V16H169.568L167.162 11.8574ZM164.271 11.1396H166.848C167.554 11.1396 168.121 10.9391 168.55 10.5381C168.978 10.137 169.192 9.61751 169.192 8.97949C169.192 8.27767 168.969 7.73307 168.522 7.3457C168.076 6.95833 167.449 6.76465 166.643 6.76465H164.271V11.1396ZM177.703 13.2109H173.185L172.159 16H171.277L175.044 6.04688H175.844L179.61 16H178.735L177.703 13.2109ZM173.444 12.4932H177.437L175.44 7.07227L173.444 12.4932ZM188.046 12.8965C187.932 13.9447 187.556 14.7467 186.918 15.3027C186.285 15.8587 185.439 16.1367 184.382 16.1367C183.644 16.1367 182.99 15.9521 182.42 15.583C181.855 15.2139 181.417 14.6921 181.107 14.0176C180.798 13.3385 180.64 12.5638 180.636 11.6934V10.4014C180.636 9.51725 180.791 8.7334 181.101 8.0498C181.41 7.36621 181.855 6.83984 182.434 6.4707C183.017 6.09701 183.687 5.91016 184.443 5.91016C185.51 5.91016 186.351 6.19954 186.966 6.77832C187.586 7.35254 187.946 8.14779 188.046 9.16406H187.198C186.989 7.47331 186.07 6.62793 184.443 6.62793C183.541 6.62793 182.821 6.96517 182.283 7.63965C181.75 8.31413 181.483 9.24609 181.483 10.4355V11.6523C181.483 12.8008 181.743 13.7168 182.263 14.4004C182.787 15.084 183.493 15.4258 184.382 15.4258C185.261 15.4258 185.924 15.2161 186.371 14.7969C186.818 14.373 187.093 13.7396 187.198 12.8965H188.046ZM192.332 11.0576L190.931 12.4385V16H190.09V6.04688H190.931V11.4131L196.03 6.04688H197.09L192.92 10.4766L197.411 16H196.386L192.332 11.0576ZM199.947 16H199.106V6.04688H199.947V16ZM210.064 16H209.224L203.502 7.48242V16H202.654V6.04688H203.502L209.23 14.5713V6.04688H210.064V16ZM219.778 14.8174C219.487 15.2321 219.029 15.5557 218.404 15.7881C217.785 16.0205 217.09 16.1367 216.319 16.1367C215.54 16.1367 214.847 15.9499 214.241 15.5762C213.635 15.2025 213.166 14.6738 212.833 13.9902C212.5 13.3066 212.332 12.5228 212.327 11.6387V10.3809C212.327 9 212.676 7.91081 213.373 7.11328C214.07 6.3112 215.007 5.91016 216.183 5.91016C217.208 5.91016 218.033 6.1722 218.657 6.69629C219.282 7.21582 219.653 7.93359 219.771 8.84961H218.931C218.808 8.12044 218.509 7.56901 218.035 7.19531C217.566 6.81706 216.951 6.62793 216.189 6.62793C215.26 6.62793 214.524 6.95833 213.981 7.61914C213.439 8.27995 213.168 9.21191 213.168 10.415V11.5908C213.168 12.3473 213.296 13.0173 213.551 13.6006C213.811 14.1794 214.18 14.6283 214.658 14.9473C215.141 15.2663 215.695 15.4258 216.319 15.4258C217.044 15.4258 217.666 15.3118 218.186 15.084C218.523 14.9336 218.773 14.7581 218.938 14.5576V11.9873H216.265V11.2764H219.778V14.8174Z" fill="#0F1923"/>
<path d="M35.3901 20V13.6016H37.2798C37.9653 13.6016 38.4854 13.7437 38.8398 14.0278C39.1943 14.3091 39.3716 14.7251 39.3716 15.2759C39.3716 15.6069 39.2808 15.8955 39.0991 16.1416C38.9204 16.3848 38.6743 16.5591 38.3608 16.6646C38.7329 16.7466 39.0317 16.9297 39.2573 17.2139C39.4858 17.498 39.6001 17.8262 39.6001 18.1982C39.6001 18.7637 39.417 19.2061 39.0508 19.5254C38.6875 19.8418 38.1807 20 37.5303 20H35.3901ZM35.9307 16.9238V19.543H37.5522C38.0151 19.543 38.3813 19.4258 38.6509 19.1914C38.9233 18.9541 39.0596 18.626 39.0596 18.207C39.0596 17.8115 38.9292 17.4995 38.6685 17.271C38.4106 17.0396 38.0532 16.9238 37.5962 16.9238H35.9307ZM35.9307 16.4712H37.4072C37.8584 16.4624 38.207 16.3569 38.4531 16.1548C38.7021 15.9497 38.8267 15.6523 38.8267 15.2627C38.8267 14.8525 38.6978 14.5508 38.4399 14.3574C38.1851 14.1611 37.7983 14.063 37.2798 14.063H35.9307V16.4712ZM42.54 17.0908L44.4956 13.6016H45.1196L42.8081 17.5918V20H42.2676V17.5918L39.9604 13.6016H40.6021L42.54 17.0908ZM46.5918 17.394V20H46.0513V13.6016H48.231C48.896 13.6016 49.4204 13.7715 49.8042 14.1113C50.1909 14.4512 50.3843 14.9185 50.3843 15.5132C50.3843 16.1138 50.1982 16.5781 49.8262 16.9062C49.457 17.2314 48.9209 17.394 48.2178 17.394H46.5918ZM46.5918 16.937H48.231C48.7554 16.937 49.1553 16.8125 49.4307 16.5635C49.7061 16.3145 49.8438 15.9673 49.8438 15.522C49.8438 15.0796 49.7061 14.728 49.4307 14.4673C49.1582 14.2036 48.77 14.0688 48.2661 14.063H46.5918V16.937ZM54.4448 18.207H51.54L50.8809 20H50.314L52.7354 13.6016H53.2495L55.6709 20H55.1084L54.4448 18.207ZM51.707 17.7456H54.2734L52.9902 14.2607L51.707 17.7456ZM60.2368 18.4268C60.2368 18.0723 60.1123 17.7925 59.8633 17.5874C59.6143 17.3794 59.1587 17.1831 58.4966 16.9985C57.8345 16.811 57.3511 16.6074 57.0464 16.3877C56.6128 16.0771 56.396 15.6699 56.396 15.166C56.396 14.6768 56.5967 14.2798 56.998 13.9751C57.4023 13.6675 57.918 13.5137 58.5449 13.5137C58.9697 13.5137 59.3491 13.5957 59.6831 13.7598C60.02 13.9238 60.2808 14.1523 60.4653 14.4453C60.6499 14.7383 60.7422 15.0649 60.7422 15.4253H60.1973C60.1973 14.9888 60.0479 14.6387 59.749 14.375C59.4502 14.1084 59.0488 13.9751 58.5449 13.9751C58.0557 13.9751 57.666 14.085 57.376 14.3047C57.0859 14.5215 56.9409 14.8057 56.9409 15.1572C56.9409 15.4824 57.0713 15.7476 57.332 15.9526C57.5928 16.1577 58.0103 16.3394 58.5845 16.4976C59.1587 16.6528 59.5938 16.8154 59.8896 16.9854C60.1855 17.1523 60.4082 17.353 60.5576 17.5874C60.707 17.8218 60.7817 18.0986 60.7817 18.418C60.7817 18.9219 60.5796 19.3262 60.1753 19.6309C59.7739 19.9355 59.2437 20.0879 58.5845 20.0879C58.1333 20.0879 57.7188 20.0073 57.3408 19.8462C56.9658 19.6851 56.6802 19.4595 56.4839 19.1694C56.2905 18.8794 56.1938 18.5469 56.1938 18.1719H56.7344C56.7344 18.623 56.9028 18.979 57.2397 19.2397C57.5767 19.5005 58.0249 19.6309 58.5845 19.6309C59.0825 19.6309 59.4824 19.521 59.7842 19.3013C60.0859 19.0815 60.2368 18.79 60.2368 18.4268ZM65.5718 18.4268C65.5718 18.0723 65.4473 17.7925 65.1982 17.5874C64.9492 17.3794 64.4937 17.1831 63.8315 16.9985C63.1694 16.811 62.686 16.6074 62.3813 16.3877C61.9478 16.0771 61.731 15.6699 61.731 15.166C61.731 14.6768 61.9316 14.2798 62.333 13.9751C62.7373 13.6675 63.2529 13.5137 63.8799 13.5137C64.3047 13.5137 64.6841 13.5957 65.0181 13.7598C65.355 13.9238 65.6157 14.1523 65.8003 14.4453C65.9849 14.7383 66.0771 15.0649 66.0771 15.4253H65.5322C65.5322 14.9888 65.3828 14.6387 65.084 14.375C64.7852 14.1084 64.3838 13.9751 63.8799 13.9751C63.3906 13.9751 63.001 14.085 62.7109 14.3047C62.4209 14.5215 62.2759 14.8057 62.2759 15.1572C62.2759 15.4824 62.4062 15.7476 62.667 15.9526C62.9277 16.1577 63.3452 16.3394 63.9194 16.4976C64.4937 16.6528 64.9287 16.8154 65.2246 16.9854C65.5205 17.1523 65.7432 17.353 65.8926 17.5874C66.042 17.8218 66.1167 18.0986 66.1167 18.418C66.1167 18.9219 65.9146 19.3262 65.5103 19.6309C65.1089 19.9355 64.5786 20.0879 63.9194 20.0879C63.4683 20.0879 63.0537 20.0073 62.6758 19.8462C62.3008 19.6851 62.0151 19.4595 61.8188 19.1694C61.6255 18.8794 61.5288 18.5469 61.5288 18.1719H62.0693C62.0693 18.623 62.2378 18.979 62.5747 19.2397C62.9116 19.5005 63.3599 19.6309 63.9194 19.6309C64.4175 19.6309 64.8174 19.521 65.1191 19.3013C65.4209 19.0815 65.5718 18.79 65.5718 18.4268ZM67.9448 20H67.4043V13.6016H67.9448V20ZM74.4487 20H73.9082L70.23 14.5244V20H69.6851V13.6016H70.23L73.9126 19.0815V13.6016H74.4487V20ZM80.6934 19.2397C80.5059 19.5063 80.2114 19.7144 79.8101 19.8638C79.4116 20.0132 78.9648 20.0879 78.4697 20.0879C77.9688 20.0879 77.5234 19.9678 77.1338 19.7275C76.7441 19.4873 76.4424 19.1475 76.2285 18.708C76.0146 18.2686 75.9062 17.7646 75.9033 17.1963V16.3877C75.9033 15.5 76.1274 14.7998 76.5757 14.2871C77.0239 13.7715 77.626 13.5137 78.3818 13.5137C79.041 13.5137 79.5713 13.6821 79.9727 14.019C80.374 14.353 80.6128 14.8145 80.689 15.4033H80.1484C80.0693 14.9346 79.8774 14.5801 79.5728 14.3398C79.271 14.0967 78.8755 13.9751 78.3862 13.9751C77.7886 13.9751 77.3154 14.1875 76.9668 14.6123C76.6182 15.0371 76.4438 15.6362 76.4438 16.4097V17.1655C76.4438 17.6519 76.5259 18.0825 76.6899 18.4575C76.8569 18.8296 77.0942 19.1182 77.4019 19.3232C77.7124 19.5283 78.0684 19.6309 78.4697 19.6309C78.9355 19.6309 79.3354 19.5576 79.6694 19.4111C79.8862 19.3145 80.0474 19.2017 80.1528 19.0728V17.4204H78.4346V16.9634H80.6934V19.2397Z" fill="#AED2F5"/>
<path d="M300.272 20H299.731L296.053 14.5244V20H295.508V13.6016H296.053L299.736 19.0815V13.6016H300.272V20ZM305.431 16.9326H302.438V19.543H305.879V20H301.898V13.6016H305.857V14.063H302.438V16.4756H305.431V16.9326ZM311.452 14.063H309.259V20H308.718V14.063H306.53V13.6016H311.452V14.063ZM313.741 18.2729L313.939 19.2661L314.181 18.3169L315.569 13.6016H316.057L317.428 18.3169L317.666 19.2749L317.876 18.2729L319.032 13.6016H319.586L317.947 20H317.428L315.978 14.9946L315.815 14.3618L315.657 14.9946L314.172 20H313.653L312.019 13.6016H312.572L313.741 18.2729ZM325.356 17.1479C325.356 17.7368 325.253 18.2539 325.048 18.6992C324.846 19.1445 324.556 19.4873 324.178 19.7275C323.8 19.9678 323.364 20.0879 322.869 20.0879C322.122 20.0879 321.518 19.8213 321.058 19.2881C320.598 18.752 320.368 18.0298 320.368 17.1216V16.4624C320.368 15.8794 320.471 15.3638 320.676 14.9155C320.884 14.4644 321.177 14.1187 321.555 13.8784C321.933 13.6353 322.368 13.5137 322.86 13.5137C323.352 13.5137 323.786 13.6323 324.161 13.8696C324.539 14.1069 324.83 14.4424 325.035 14.876C325.24 15.3096 325.347 15.812 325.356 16.3833V17.1479ZM324.815 16.4536C324.815 15.6831 324.641 15.0796 324.292 14.6431C323.944 14.2065 323.466 13.9883 322.86 13.9883C322.265 13.9883 321.791 14.208 321.436 14.6475C321.084 15.084 320.909 15.6948 320.909 16.48V17.1479C320.909 17.9067 321.084 18.5088 321.436 18.9541C321.788 19.3965 322.265 19.6177 322.869 19.6177C323.481 19.6177 323.958 19.3994 324.301 18.9629C324.644 18.5234 324.815 17.9126 324.815 17.1304V16.4536ZM329.109 17.3369H327.25V20H326.705V13.6016H328.784C329.466 13.6016 330 13.7671 330.383 14.0981C330.767 14.4292 330.959 14.8921 330.959 15.4868C330.959 15.897 330.839 16.2588 330.599 16.5723C330.358 16.8857 330.036 17.1025 329.632 17.2227L331.231 19.9429V20H330.656L329.109 17.3369ZM327.25 16.8755H328.907C329.361 16.8755 329.726 16.7466 330.001 16.4888C330.276 16.231 330.414 15.897 330.414 15.4868C330.414 15.0356 330.271 14.6855 329.983 14.4365C329.696 14.1875 329.293 14.063 328.775 14.063H327.25V16.8755ZM333.873 16.8228L332.972 17.7104V20H332.431V13.6016H332.972V17.0513L336.25 13.6016H336.931L334.25 16.4492L337.138 20H336.479L333.873 16.8228Z" fill="#AED2F5"/>
</svg>
