<svg width="375" height="22" viewBox="0 0 375 22" fill="none" xmlns="http://www.w3.org/2000/svg">
<rect width="11" height="375" transform="matrix(-1.31134e-07 -1 -1 1.31134e-07 375 22.0002)" fill="#0F1923"/>
<rect y="11" width="11" height="188" transform="rotate(-90 0 11)" fill="#FF4654"/>
<path d="M375 11L375 5.43594e-05L188 -4.09038e-07L188 11L375 11Z" fill="#FF4654"/>
<rect x="249" y="22" width="11" height="63" transform="rotate(-90 249 22)" fill="#FF4654"/>
<rect x="239" y="16" width="5" height="10" transform="rotate(-90 239 16)" fill="#FF4654"/>
<path d="M239 17L227 11L239 11L239 17Z" fill="#FF4654"/>
<path d="M249 22L237 16L249 16L249 22Z" fill="#FF4654"/>
<rect width="11" height="63" transform="matrix(-4.37114e-08 -1 -1 4.37114e-08 375 22)" fill="#FF4654"/>
<rect x="227" y="11" width="11" height="85" transform="rotate(-90 227 11)" fill="#FF4654"/>
<rect width="11" height="63" transform="matrix(-5.0209e-08 -1 -1 3.80546e-08 375 11)" fill="#FF4654"/>
<path d="M291.534 17H290.693L284.972 8.48242V17H284.124V7.04688H284.972L290.7 15.5713V7.04688H291.534V17ZM299.56 12.2285H294.904V16.2891H300.257V17H294.063V7.04688H300.223V7.76465H294.904V11.5176H299.56V12.2285ZM308.925 7.76465H305.514V17H304.673V7.76465H301.269V7.04688H308.925V7.76465ZM312.486 14.3135L312.794 15.8584L313.17 14.3818L315.33 7.04688H316.089L318.222 14.3818L318.591 15.8721L318.919 14.3135L320.717 7.04688H321.578L319.028 17H318.222L315.966 9.21387L315.713 8.22949L315.467 9.21387L313.156 17H312.35L309.807 7.04688H310.668L312.486 14.3135ZM330.554 12.5635C330.554 13.4795 330.394 14.2839 330.075 14.9766C329.761 15.6693 329.31 16.2025 328.722 16.5762C328.134 16.9499 327.455 17.1367 326.685 17.1367C325.522 17.1367 324.584 16.722 323.868 15.8926C323.153 15.0586 322.795 13.9352 322.795 12.5225V11.4971C322.795 10.5902 322.954 9.78809 323.273 9.09082C323.597 8.389 324.053 7.85124 324.641 7.47754C325.229 7.09928 325.905 6.91016 326.671 6.91016C327.437 6.91016 328.111 7.09473 328.694 7.46387C329.282 7.83301 329.736 8.35482 330.055 9.0293C330.374 9.70378 330.54 10.4854 330.554 11.374V12.5635ZM329.713 11.4834C329.713 10.2848 329.442 9.34603 328.899 8.66699C328.357 7.98796 327.614 7.64844 326.671 7.64844C325.746 7.64844 325.007 7.99023 324.456 8.67383C323.909 9.35286 323.636 10.3031 323.636 11.5244V12.5635C323.636 13.7438 323.909 14.6803 324.456 15.373C325.003 16.0612 325.746 16.4053 326.685 16.4053C327.637 16.4053 328.38 16.0658 328.913 15.3867C329.446 14.7031 329.713 13.7529 329.713 12.5361V11.4834ZM336.392 12.8574H333.5V17H332.652V7.04688H335.886C336.948 7.04688 337.777 7.30436 338.374 7.81934C338.971 8.33431 339.27 9.05436 339.27 9.97949C339.27 10.6175 339.083 11.1803 338.709 11.668C338.335 12.1556 337.834 12.4928 337.205 12.6797L339.693 16.9111V17H338.798L336.392 12.8574ZM333.5 12.1396H336.077C336.784 12.1396 337.351 11.9391 337.779 11.5381C338.208 11.137 338.422 10.6175 338.422 9.97949C338.422 9.27767 338.199 8.73307 337.752 8.3457C337.305 7.95833 336.679 7.76465 335.872 7.76465H333.5V12.1396ZM343.802 12.0576L342.4 13.4385V17H341.56V7.04688H342.4V12.4131L347.5 7.04688H348.56L344.39 11.4766L348.881 17H347.855L343.802 12.0576Z" fill="#0F1923"/>
<path d="M171.542 18.0049C171.469 18.6787 171.228 19.1943 170.817 19.5518C170.41 19.9092 169.867 20.0879 169.187 20.0879C168.712 20.0879 168.292 19.9692 167.926 19.7319C167.562 19.4946 167.281 19.1592 167.082 18.7256C166.883 18.2891 166.782 17.791 166.779 17.2314V16.4009C166.779 15.8325 166.878 15.3286 167.078 14.8892C167.277 14.4497 167.562 14.1113 167.935 13.874C168.31 13.6338 168.74 13.5137 169.227 13.5137C169.912 13.5137 170.453 13.6997 170.848 14.0718C171.247 14.4409 171.478 14.9521 171.542 15.6055H170.998C170.863 14.5186 170.272 13.9751 169.227 13.9751C168.646 13.9751 168.184 14.1919 167.838 14.6255C167.495 15.0591 167.324 15.6582 167.324 16.4229V17.2051C167.324 17.9434 167.491 18.5322 167.825 18.9717C168.162 19.4111 168.616 19.6309 169.187 19.6309C169.752 19.6309 170.179 19.4961 170.466 19.2266C170.753 18.9541 170.93 18.5469 170.998 18.0049H171.542ZM175.247 17.3369H173.388V20H172.843V13.6016H174.922C175.604 13.6016 176.138 13.7671 176.521 14.0981C176.905 14.4292 177.097 14.8921 177.097 15.4868C177.097 15.897 176.977 16.2588 176.737 16.5723C176.497 16.8857 176.174 17.1025 175.77 17.2227L177.37 19.9429V20H176.794L175.247 17.3369ZM173.388 16.8755H175.045C175.499 16.8755 175.864 16.7466 176.139 16.4888C176.415 16.231 176.552 15.897 176.552 15.4868C176.552 15.0356 176.409 14.6855 176.122 14.4365C175.834 14.1875 175.432 14.063 174.913 14.063H173.388V16.8755ZM182.023 18.207H179.119L178.459 20H177.893L180.314 13.6016H180.828L183.25 20H182.687L182.023 18.207ZM179.286 17.7456H181.852L180.569 14.2607L179.286 17.7456ZM188.672 18.0049C188.599 18.6787 188.357 19.1943 187.947 19.5518C187.54 19.9092 186.997 20.0879 186.317 20.0879C185.842 20.0879 185.422 19.9692 185.056 19.7319C184.692 19.4946 184.411 19.1592 184.212 18.7256C184.013 18.2891 183.912 17.791 183.909 17.2314V16.4009C183.909 15.8325 184.008 15.3286 184.208 14.8892C184.407 14.4497 184.692 14.1113 185.064 13.874C185.439 13.6338 185.87 13.5137 186.356 13.5137C187.042 13.5137 187.583 13.6997 187.978 14.0718C188.376 14.4409 188.608 14.9521 188.672 15.6055H188.127C187.993 14.5186 187.402 13.9751 186.356 13.9751C185.776 13.9751 185.313 14.1919 184.968 14.6255C184.625 15.0591 184.454 15.6582 184.454 16.4229V17.2051C184.454 17.9434 184.621 18.5322 184.955 18.9717C185.292 19.4111 185.746 19.6309 186.317 19.6309C186.882 19.6309 187.309 19.4961 187.596 19.2266C187.883 18.9541 188.06 18.5469 188.127 18.0049H188.672ZM191.428 16.8228L190.527 17.7104V20H189.986V13.6016H190.527V17.0513L193.805 13.6016H194.486L191.806 16.4492L194.693 20H194.034L191.428 16.8228ZM196.323 20H195.783V13.6016H196.323V20ZM202.827 20H202.287L198.608 14.5244V20H198.063V13.6016H198.608L202.291 19.0815V13.6016H202.827V20ZM209.072 19.2397C208.884 19.5063 208.59 19.7144 208.188 19.8638C207.79 20.0132 207.343 20.0879 206.848 20.0879C206.347 20.0879 205.902 19.9678 205.512 19.7275C205.123 19.4873 204.821 19.1475 204.607 18.708C204.393 18.2686 204.285 17.7646 204.282 17.1963V16.3877C204.282 15.5 204.506 14.7998 204.954 14.2871C205.402 13.7715 206.004 13.5137 206.76 13.5137C207.419 13.5137 207.95 13.6821 208.351 14.019C208.752 14.353 208.991 14.8145 209.067 15.4033H208.527C208.448 14.9346 208.256 14.5801 207.951 14.3398C207.649 14.0967 207.254 13.9751 206.765 13.9751C206.167 13.9751 205.694 14.1875 205.345 14.6123C204.997 15.0371 204.822 15.6362 204.822 16.4097V17.1655C204.822 17.6519 204.904 18.0825 205.068 18.4575C205.235 18.8296 205.473 19.1182 205.78 19.3232C206.091 19.5283 206.447 19.6309 206.848 19.6309C207.314 19.6309 207.714 19.5576 208.048 19.4111C208.265 19.3145 208.426 19.2017 208.531 19.0728V17.4204H206.813V16.9634H209.072V19.2397Z" fill="#AED2F5"/>
<path d="M35.3901 19V12.6016H37.2798C37.9653 12.6016 38.4854 12.7437 38.8398 13.0278C39.1943 13.3091 39.3716 13.7251 39.3716 14.2759C39.3716 14.6069 39.2808 14.8955 39.0991 15.1416C38.9204 15.3848 38.6743 15.5591 38.3608 15.6646C38.7329 15.7466 39.0317 15.9297 39.2573 16.2139C39.4858 16.498 39.6001 16.8262 39.6001 17.1982C39.6001 17.7637 39.417 18.2061 39.0508 18.5254C38.6875 18.8418 38.1807 19 37.5303 19H35.3901ZM35.9307 15.9238V18.543H37.5522C38.0151 18.543 38.3813 18.4258 38.6509 18.1914C38.9233 17.9541 39.0596 17.626 39.0596 17.207C39.0596 16.8115 38.9292 16.4995 38.6685 16.271C38.4106 16.0396 38.0532 15.9238 37.5962 15.9238H35.9307ZM35.9307 15.4712H37.4072C37.8584 15.4624 38.207 15.3569 38.4531 15.1548C38.7021 14.9497 38.8267 14.6523 38.8267 14.2627C38.8267 13.8525 38.6978 13.5508 38.4399 13.3574C38.1851 13.1611 37.7983 13.063 37.2798 13.063H35.9307V15.4712ZM42.54 16.0908L44.4956 12.6016H45.1196L42.8081 16.5918V19H42.2676V16.5918L39.9604 12.6016H40.6021L42.54 16.0908ZM46.5918 16.394V19H46.0513V12.6016H48.231C48.896 12.6016 49.4204 12.7715 49.8042 13.1113C50.1909 13.4512 50.3843 13.9185 50.3843 14.5132C50.3843 15.1138 50.1982 15.5781 49.8262 15.9062C49.457 16.2314 48.9209 16.394 48.2178 16.394H46.5918ZM46.5918 15.937H48.231C48.7554 15.937 49.1553 15.8125 49.4307 15.5635C49.7061 15.3145 49.8438 14.9673 49.8438 14.522C49.8438 14.0796 49.7061 13.728 49.4307 13.4673C49.1582 13.2036 48.77 13.0688 48.2661 13.063H46.5918V15.937ZM54.4448 17.207H51.54L50.8809 19H50.314L52.7354 12.6016H53.2495L55.6709 19H55.1084L54.4448 17.207ZM51.707 16.7456H54.2734L52.9902 13.2607L51.707 16.7456ZM60.2368 17.4268C60.2368 17.0723 60.1123 16.7925 59.8633 16.5874C59.6143 16.3794 59.1587 16.1831 58.4966 15.9985C57.8345 15.811 57.3511 15.6074 57.0464 15.3877C56.6128 15.0771 56.396 14.6699 56.396 14.166C56.396 13.6768 56.5967 13.2798 56.998 12.9751C57.4023 12.6675 57.918 12.5137 58.5449 12.5137C58.9697 12.5137 59.3491 12.5957 59.6831 12.7598C60.02 12.9238 60.2808 13.1523 60.4653 13.4453C60.6499 13.7383 60.7422 14.0649 60.7422 14.4253H60.1973C60.1973 13.9888 60.0479 13.6387 59.749 13.375C59.4502 13.1084 59.0488 12.9751 58.5449 12.9751C58.0557 12.9751 57.666 13.085 57.376 13.3047C57.0859 13.5215 56.9409 13.8057 56.9409 14.1572C56.9409 14.4824 57.0713 14.7476 57.332 14.9526C57.5928 15.1577 58.0103 15.3394 58.5845 15.4976C59.1587 15.6528 59.5938 15.8154 59.8896 15.9854C60.1855 16.1523 60.4082 16.353 60.5576 16.5874C60.707 16.8218 60.7817 17.0986 60.7817 17.418C60.7817 17.9219 60.5796 18.3262 60.1753 18.6309C59.7739 18.9355 59.2437 19.0879 58.5845 19.0879C58.1333 19.0879 57.7188 19.0073 57.3408 18.8462C56.9658 18.6851 56.6802 18.4595 56.4839 18.1694C56.2905 17.8794 56.1938 17.5469 56.1938 17.1719H56.7344C56.7344 17.623 56.9028 17.979 57.2397 18.2397C57.5767 18.5005 58.0249 18.6309 58.5845 18.6309C59.0825 18.6309 59.4824 18.521 59.7842 18.3013C60.0859 18.0815 60.2368 17.79 60.2368 17.4268ZM65.5718 17.4268C65.5718 17.0723 65.4473 16.7925 65.1982 16.5874C64.9492 16.3794 64.4937 16.1831 63.8315 15.9985C63.1694 15.811 62.686 15.6074 62.3813 15.3877C61.9478 15.0771 61.731 14.6699 61.731 14.166C61.731 13.6768 61.9316 13.2798 62.333 12.9751C62.7373 12.6675 63.2529 12.5137 63.8799 12.5137C64.3047 12.5137 64.6841 12.5957 65.0181 12.7598C65.355 12.9238 65.6157 13.1523 65.8003 13.4453C65.9849 13.7383 66.0771 14.0649 66.0771 14.4253H65.5322C65.5322 13.9888 65.3828 13.6387 65.084 13.375C64.7852 13.1084 64.3838 12.9751 63.8799 12.9751C63.3906 12.9751 63.001 13.085 62.7109 13.3047C62.4209 13.5215 62.2759 13.8057 62.2759 14.1572C62.2759 14.4824 62.4062 14.7476 62.667 14.9526C62.9277 15.1577 63.3452 15.3394 63.9194 15.4976C64.4937 15.6528 64.9287 15.8154 65.2246 15.9854C65.5205 16.1523 65.7432 16.353 65.8926 16.5874C66.042 16.8218 66.1167 17.0986 66.1167 17.418C66.1167 17.9219 65.9146 18.3262 65.5103 18.6309C65.1089 18.9355 64.5786 19.0879 63.9194 19.0879C63.4683 19.0879 63.0537 19.0073 62.6758 18.8462C62.3008 18.6851 62.0151 18.4595 61.8188 18.1694C61.6255 17.8794 61.5288 17.5469 61.5288 17.1719H62.0693C62.0693 17.623 62.2378 17.979 62.5747 18.2397C62.9116 18.5005 63.3599 18.6309 63.9194 18.6309C64.4175 18.6309 64.8174 18.521 65.1191 18.3013C65.4209 18.0815 65.5718 17.79 65.5718 17.4268ZM67.9448 19H67.4043V12.6016H67.9448V19ZM74.4487 19H73.9082L70.23 13.5244V19H69.6851V12.6016H70.23L73.9126 18.0815V12.6016H74.4487V19ZM80.6934 18.2397C80.5059 18.5063 80.2114 18.7144 79.8101 18.8638C79.4116 19.0132 78.9648 19.0879 78.4697 19.0879C77.9688 19.0879 77.5234 18.9678 77.1338 18.7275C76.7441 18.4873 76.4424 18.1475 76.2285 17.708C76.0146 17.2686 75.9062 16.7646 75.9033 16.1963V15.3877C75.9033 14.5 76.1274 13.7998 76.5757 13.2871C77.0239 12.7715 77.626 12.5137 78.3818 12.5137C79.041 12.5137 79.5713 12.6821 79.9727 13.019C80.374 13.353 80.6128 13.8145 80.689 14.4033H80.1484C80.0693 13.9346 79.8774 13.5801 79.5728 13.3398C79.271 13.0967 78.8755 12.9751 78.3862 12.9751C77.7886 12.9751 77.3154 13.1875 76.9668 13.6123C76.6182 14.0371 76.4438 14.6362 76.4438 15.4097V16.1655C76.4438 16.6519 76.5259 17.0825 76.6899 17.4575C76.8569 17.8296 77.0942 18.1182 77.4019 18.3232C77.7124 18.5283 78.0684 18.6309 78.4697 18.6309C78.9355 18.6309 79.3354 18.5576 79.6694 18.4111C79.8862 18.3145 80.0474 18.2017 80.1528 18.0728V16.4204H78.4346V15.9634H80.6934V18.2397Z" fill="#AED2F5"/>
</svg>
