<svg width="55" height="55" viewBox="0 0 55 55" fill="none" xmlns="http://www.w3.org/2000/svg">
<rect width="55" height="55" fill="#202932"/>
<rect x="13.5" y="3.5" width="29" height="36" rx="14.5" fill="#AED2F5" stroke="#AED2F5"/>
<rect x="16.5" y="6.5" width="23" height="30" rx="11.5" fill="#202932" stroke="#AED2F5"/>
<rect x="10.5" y="25.5" width="35" height="25" rx="2.5" fill="#AED2F5" stroke="#AED2F5"/>
<rect x="13.5" y="39.5" width="28" height="6" rx="2.5" fill="#AED2F5" stroke="#202932"/>
<path d="M17.8496 42.6802L16.5225 42.2847L16.7246 41.6211L18.0518 42.1133L18.0122 40.6016H18.6846L18.6406 42.1353L19.9458 41.6519L20.1479 42.3198L18.7988 42.7197L19.6689 43.9106L19.124 44.3237L18.3066 43.0581L17.5156 44.293L16.9663 43.8931L17.8496 42.6802ZM23.958 42.6802L22.6309 42.2847L22.833 41.6211L24.1602 42.1133L24.1206 40.6016H24.793L24.749 42.1353L26.0542 41.6519L26.2563 42.3198L24.9072 42.7197L25.7773 43.9106L25.2324 44.3237L24.415 43.0581L23.624 44.293L23.0747 43.8931L23.958 42.6802ZM30.0664 42.6802L28.7393 42.2847L28.9414 41.6211L30.2686 42.1133L30.229 40.6016H30.9014L30.8574 42.1353L32.1626 41.6519L32.3647 42.3198L31.0156 42.7197L31.8857 43.9106L31.3408 44.3237L30.5234 43.0581L29.7324 44.293L29.1831 43.8931L30.0664 42.6802ZM36.1748 42.6802L34.8477 42.2847L35.0498 41.6211L36.377 42.1133L36.3374 40.6016H37.0098L36.9658 42.1353L38.271 41.6519L38.4731 42.3198L37.124 42.7197L37.9941 43.9106L37.4492 44.3237L36.6318 43.0581L35.8408 44.293L35.2915 43.8931L36.1748 42.6802Z" fill="#202932"/>
</svg>
