<svg width="75" height="77" viewBox="0 0 75 77" fill="none" xmlns="http://www.w3.org/2000/svg">
<rect width="75" height="77" fill="#0F1923"/>
<path d="M23.6863 28.5897C25.5378 28.5897 27.0707 27.2214 27.3678 25.4274H34.641L33.8356 26.2451L34.7164 27.1395L37.0257 24.7949L34.7164 22.4503L33.8356 23.3446L34.641 24.1624H27.3678C27.0707 22.3683 25.5378 21 23.6863 21C21.6221 21 19.9487 22.699 19.9487 24.7949C19.9487 26.8907 21.6221 28.5897 23.6863 28.5897Z" fill="#AED2F5"/>
<path d="M48.3169 24.0457H44.2665C43.9733 22.3178 42.4608 21 40.6339 21C38.5971 21 36.946 22.6363 36.946 24.6548C36.946 26.6733 38.5971 28.3096 40.6339 28.3096C42.4608 28.3096 43.9733 26.9918 44.2665 25.264H48.3169C51.8757 25.264 54.7707 28.1333 54.7707 31.6599C54.7707 35.1865 51.8757 38.0558 48.3169 38.0558H38.4298L39.2245 37.2683L38.3554 36.4069L36.0769 38.665L38.3554 40.9231L39.2245 40.0617L38.4298 39.2741H48.3169C52.5534 39.2741 56 35.8584 56 31.6599C56 27.4614 52.5534 24.0457 48.3169 24.0457Z" fill="#AED2F5"/>
<path d="M52.205 57.0513C54.3009 57.0513 55.9999 55.3523 55.9999 53.2564C55.9999 51.1606 54.3009 49.4615 52.205 49.4615C50.1092 49.4615 48.4102 51.1606 48.4102 53.2564C48.4102 55.3523 50.1092 57.0513 52.205 57.0513Z" fill="#AED2F5"/>
<path d="M34.8632 49.4615C32.9136 49.4615 31.3333 51.1606 31.3333 53.2564C31.3333 55.3523 32.9136 57.0513 34.8632 57.0513C36.6118 57.0513 38.0595 55.683 38.3401 53.8889H45.2093L44.4486 54.7067L45.2805 55.601L47.4615 53.2564L45.2805 50.9118L44.4486 51.8062L45.2093 52.6239H38.3402C38.0595 50.8298 36.6118 49.4615 34.8632 49.4615Z" fill="#AED2F5"/>
<path d="M26.906 53.5048H28.2253L27.4075 54.2924L28.3019 55.1538L30.6465 52.8957L28.3019 50.6376L27.4075 51.499L28.2253 52.2866H26.906C23.2439 52.2866 20.265 49.4172 20.265 45.8906C20.265 42.364 23.2439 39.4947 26.906 39.4947H28.5441C28.8458 41.2226 30.4022 42.5404 32.2821 42.5404C34.3779 42.5404 36.0769 40.904 36.0769 38.8855C36.0769 36.867 34.3779 35.2307 32.2821 35.2307C30.4022 35.2307 28.8458 36.5485 28.5441 38.2764H26.906C22.5466 38.2764 19 41.6921 19 45.8906C19 50.0891 22.5466 53.5048 26.906 53.5048Z" fill="#AED2F5"/>
</svg>
