<svg width="76" height="89" viewBox="0 0 76 89" fill="none" xmlns="http://www.w3.org/2000/svg">
<rect x="1" width="68" height="12" fill="#FF4654"/>
<path d="M75 12L69 0V12H75Z" fill="#FF4654"/>
<rect y="12" width="75" height="77" fill="#0F1923"/>
<rect x="1" y="12" width="75" height="77" fill="#FF4654"/>
<path d="M24.6863 41.5897C26.5378 41.5897 28.0707 40.2214 28.3678 38.4274H35.641L34.8356 39.2451L35.7164 40.1395L38.0257 37.7949L35.7164 35.4503L34.8356 36.3446L35.641 37.1624H28.3678C28.0707 35.3683 26.5378 34 24.6863 34C22.6221 34 20.9487 35.699 20.9487 37.7949C20.9487 39.8907 22.6221 41.5897 24.6863 41.5897Z" fill="#0F1923"/>
<path d="M49.3169 37.0457H45.2665C44.9733 35.3178 43.4608 34 41.6339 34C39.5971 34 37.946 35.6363 37.946 37.6548C37.946 39.6733 39.5971 41.3096 41.6339 41.3096C43.4608 41.3096 44.9733 39.9918 45.2665 38.264H49.3169C52.8757 38.264 55.7707 41.1333 55.7707 44.6599C55.7707 48.1865 52.8757 51.0558 49.3169 51.0558H39.4298L40.2245 50.2683L39.3554 49.4069L37.0769 51.665L39.3554 53.9231L40.2245 53.0617L39.4298 52.2741H49.3169C53.5534 52.2741 57 48.8584 57 44.6599C57 40.4614 53.5534 37.0457 49.3169 37.0457Z" fill="#0F1923"/>
<path d="M53.205 70.0513C55.3009 70.0513 56.9999 68.3523 56.9999 66.2564C56.9999 64.1606 55.3009 62.4615 53.205 62.4615C51.1092 62.4615 49.4102 64.1606 49.4102 66.2564C49.4102 68.3523 51.1092 70.0513 53.205 70.0513Z" fill="#0F1923"/>
<path d="M35.8632 62.4615C33.9136 62.4615 32.3333 64.1606 32.3333 66.2564C32.3333 68.3523 33.9136 70.0513 35.8632 70.0513C37.6118 70.0513 39.0595 68.683 39.3401 66.8889H46.2093L45.4486 67.7067L46.2805 68.601L48.4615 66.2564L46.2805 63.9118L45.4486 64.8062L46.2093 65.6239H39.3402C39.0595 63.8298 37.6118 62.4615 35.8632 62.4615Z" fill="#0F1923"/>
<path d="M27.906 66.5048H29.2253L28.4075 67.2924L29.3019 68.1538L31.6465 65.8957L29.3019 63.6376L28.4075 64.499L29.2253 65.2866H27.906C24.2439 65.2866 21.265 62.4172 21.265 58.8906C21.265 55.364 24.2439 52.4947 27.906 52.4947H29.5441C29.8458 54.2226 31.4022 55.5404 33.2821 55.5404C35.3779 55.5404 37.0769 53.904 37.0769 51.8855C37.0769 49.867 35.3779 48.2307 33.2821 48.2307C31.4022 48.2307 29.8458 49.5485 29.5441 51.2764H27.906C23.5466 51.2764 20 54.6921 20 58.8906C20 63.0891 23.5466 66.5048 27.906 66.5048Z" fill="#0F1923"/>
<path d="M12.0283 7.10449V10H11.4277V2.89062H13.8496C14.5885 2.89062 15.1712 3.07943 15.5977 3.45703C16.0273 3.83464 16.2422 4.35384 16.2422 5.01465C16.2422 5.68197 16.0355 6.19792 15.6221 6.5625C15.2119 6.92383 14.6162 7.10449 13.835 7.10449H12.0283ZM12.0283 6.59668H13.8496C14.4323 6.59668 14.8766 6.45833 15.1826 6.18164C15.4886 5.90495 15.6416 5.51921 15.6416 5.02441C15.6416 4.53288 15.4886 4.14225 15.1826 3.85254C14.8799 3.55957 14.4486 3.40983 13.8887 3.40332H12.0283V6.59668ZM20.2461 7.04102H18.1807V10H17.5752V2.89062H19.8848C20.6432 2.89062 21.2357 3.07454 21.6621 3.44238C22.0885 3.81022 22.3018 4.32454 22.3018 4.98535C22.3018 5.44108 22.1683 5.8431 21.9014 6.19141C21.6344 6.53971 21.2764 6.7806 20.8271 6.91406L22.6045 9.93652V10H21.9648L20.2461 7.04102ZM18.1807 6.52832H20.0215C20.526 6.52832 20.9313 6.38509 21.2373 6.09863C21.5433 5.81217 21.6963 5.44108 21.6963 4.98535C21.6963 4.48405 21.5368 4.09505 21.2178 3.81836C20.8988 3.54167 20.4512 3.40332 19.875 3.40332H18.1807V6.52832ZM29.1914 6.83105C29.1914 7.48535 29.0775 8.0599 28.8496 8.55469C28.625 9.04948 28.3027 9.43034 27.8828 9.69727C27.4629 9.96419 26.9779 10.0977 26.4277 10.0977C25.5977 10.0977 24.9271 9.80143 24.416 9.20898C23.9049 8.61328 23.6494 7.81087 23.6494 6.80176V6.06934C23.6494 5.42155 23.7633 4.84863 23.9912 4.35059C24.2223 3.84928 24.5479 3.46517 24.9678 3.19824C25.3877 2.92806 25.8711 2.79297 26.418 2.79297C26.9648 2.79297 27.4466 2.9248 27.8633 3.18848C28.2832 3.45215 28.6071 3.82487 28.835 4.30664C29.0628 4.78841 29.1816 5.34668 29.1914 5.98145V6.83105ZM28.5908 6.05957C28.5908 5.20345 28.3971 4.53288 28.0098 4.04785C27.6224 3.56283 27.0918 3.32031 26.418 3.32031C25.7572 3.32031 25.2298 3.56445 24.8359 4.05273C24.4453 4.53776 24.25 5.21647 24.25 6.08887V6.83105C24.25 7.67415 24.4453 8.3431 24.8359 8.83789C25.2266 9.32943 25.7572 9.5752 26.4277 9.5752C27.1081 9.5752 27.6387 9.33268 28.0195 8.84766C28.4004 8.35938 28.5908 7.68066 28.5908 6.81152V6.05957ZM35.7393 7.7832C35.6579 8.5319 35.3893 9.10482 34.9336 9.50195C34.4811 9.89909 33.8773 10.0977 33.1221 10.0977C32.5947 10.0977 32.1276 9.96582 31.7207 9.70215C31.3171 9.43848 31.0046 9.06576 30.7832 8.58398C30.5618 8.09896 30.4495 7.54557 30.4463 6.92383V6.00098C30.4463 5.36947 30.557 4.80957 30.7783 4.32129C30.9997 3.83301 31.3171 3.45703 31.7305 3.19336C32.1471 2.92643 32.6257 2.79297 33.166 2.79297C33.9277 2.79297 34.5283 2.99967 34.9678 3.41309C35.4105 3.82324 35.6676 4.39128 35.7393 5.11719H35.1338C34.984 3.90951 34.3281 3.30566 33.166 3.30566C32.5215 3.30566 32.0072 3.54655 31.623 4.02832C31.2422 4.51009 31.0518 5.17578 31.0518 6.02539V6.89453C31.0518 7.71484 31.2373 8.36914 31.6084 8.85742C31.9827 9.3457 32.4873 9.58984 33.1221 9.58984C33.7503 9.58984 34.224 9.4401 34.543 9.14062C34.862 8.83789 35.0589 8.38542 35.1338 7.7832H35.7393ZM41.125 6.5918H37.7998V9.49219H41.623V10H37.1992V2.89062H41.5986V3.40332H37.7998V6.08398H41.125V6.5918ZM46.916 8.25195C46.916 7.85807 46.7777 7.5472 46.501 7.31934C46.2243 7.08822 45.7181 6.87012 44.9824 6.66504C44.2467 6.45671 43.7096 6.23047 43.3711 5.98633C42.8893 5.64128 42.6484 5.1888 42.6484 4.62891C42.6484 4.08529 42.8714 3.64421 43.3174 3.30566C43.7666 2.96387 44.3395 2.79297 45.0361 2.79297C45.5081 2.79297 45.9297 2.88411 46.3008 3.06641C46.6751 3.2487 46.9648 3.5026 47.1699 3.82812C47.375 4.15365 47.4775 4.5166 47.4775 4.91699H46.8721C46.8721 4.43197 46.7061 4.04297 46.374 3.75C46.042 3.45378 45.596 3.30566 45.0361 3.30566C44.4925 3.30566 44.0596 3.42773 43.7373 3.67188C43.415 3.91276 43.2539 4.22852 43.2539 4.61914C43.2539 4.98047 43.3988 5.27507 43.6885 5.50293C43.9782 5.73079 44.4421 5.93262 45.0801 6.1084C45.7181 6.28092 46.2015 6.46159 46.5303 6.65039C46.859 6.83594 47.1064 7.05892 47.2725 7.31934C47.4385 7.57975 47.5215 7.88737 47.5215 8.24219C47.5215 8.80208 47.2969 9.2513 46.8477 9.58984C46.4017 9.92839 45.8125 10.0977 45.0801 10.0977C44.5788 10.0977 44.1182 10.0081 43.6982 9.8291C43.2816 9.65007 42.9642 9.39941 42.7461 9.07715C42.5312 8.75488 42.4238 8.38542 42.4238 7.96875H43.0244C43.0244 8.47005 43.2116 8.86556 43.5859 9.15527C43.9603 9.44499 44.4583 9.58984 45.0801 9.58984C45.6335 9.58984 46.0778 9.46777 46.4131 9.22363C46.7484 8.97949 46.916 8.6556 46.916 8.25195ZM52.8438 8.25195C52.8438 7.85807 52.7054 7.5472 52.4287 7.31934C52.152 7.08822 51.6458 6.87012 50.9102 6.66504C50.1745 6.45671 49.6374 6.23047 49.2988 5.98633C48.8171 5.64128 48.5762 5.1888 48.5762 4.62891C48.5762 4.08529 48.7992 3.64421 49.2451 3.30566C49.6943 2.96387 50.2673 2.79297 50.9639 2.79297C51.4359 2.79297 51.8574 2.88411 52.2285 3.06641C52.6029 3.2487 52.8926 3.5026 53.0977 3.82812C53.3027 4.15365 53.4053 4.5166 53.4053 4.91699H52.7998C52.7998 4.43197 52.6338 4.04297 52.3018 3.75C51.9697 3.45378 51.5238 3.30566 50.9639 3.30566C50.4202 3.30566 49.9873 3.42773 49.665 3.67188C49.3428 3.91276 49.1816 4.22852 49.1816 4.61914C49.1816 4.98047 49.3265 5.27507 49.6162 5.50293C49.9059 5.73079 50.3698 5.93262 51.0078 6.1084C51.6458 6.28092 52.1292 6.46159 52.458 6.65039C52.7868 6.83594 53.0342 7.05892 53.2002 7.31934C53.3662 7.57975 53.4492 7.88737 53.4492 8.24219C53.4492 8.80208 53.2246 9.2513 52.7754 9.58984C52.3294 9.92839 51.7402 10.0977 51.0078 10.0977C50.5065 10.0977 50.0459 10.0081 49.626 9.8291C49.2093 9.65007 48.8919 9.39941 48.6738 9.07715C48.459 8.75488 48.3516 8.38542 48.3516 7.96875H48.9521C48.9521 8.47005 49.1393 8.86556 49.5137 9.15527C49.888 9.44499 50.3861 9.58984 51.0078 9.58984C51.5612 9.58984 52.0055 9.46777 52.3408 9.22363C52.6761 8.97949 52.8438 8.6556 52.8438 8.25195ZM58.6738 6.5918H55.3486V9.49219H59.1719V10H54.748V2.89062H59.1475V3.40332H55.3486V6.08398H58.6738V6.5918ZM64.4648 8.25195C64.4648 7.85807 64.3265 7.5472 64.0498 7.31934C63.7731 7.08822 63.2669 6.87012 62.5312 6.66504C61.7956 6.45671 61.2585 6.23047 60.9199 5.98633C60.4382 5.64128 60.1973 5.1888 60.1973 4.62891C60.1973 4.08529 60.4202 3.64421 60.8662 3.30566C61.3154 2.96387 61.8883 2.79297 62.585 2.79297C63.057 2.79297 63.4785 2.88411 63.8496 3.06641C64.224 3.2487 64.5137 3.5026 64.7188 3.82812C64.9238 4.15365 65.0264 4.5166 65.0264 4.91699H64.4209C64.4209 4.43197 64.2549 4.04297 63.9229 3.75C63.5908 3.45378 63.1449 3.30566 62.585 3.30566C62.0413 3.30566 61.6084 3.42773 61.2861 3.67188C60.9639 3.91276 60.8027 4.22852 60.8027 4.61914C60.8027 4.98047 60.9476 5.27507 61.2373 5.50293C61.527 5.73079 61.9909 5.93262 62.6289 6.1084C63.2669 6.28092 63.7503 6.46159 64.0791 6.65039C64.4079 6.83594 64.6553 7.05892 64.8213 7.31934C64.9873 7.57975 65.0703 7.88737 65.0703 8.24219C65.0703 8.80208 64.8457 9.2513 64.3965 9.58984C63.9505 9.92839 63.3613 10.0977 62.6289 10.0977C62.1276 10.0977 61.667 10.0081 61.2471 9.8291C60.8304 9.65007 60.513 9.39941 60.2949 9.07715C60.0801 8.75488 59.9727 8.38542 59.9727 7.96875H60.5732C60.5732 8.47005 60.7604 8.86556 61.1348 9.15527C61.5091 9.44499 62.0072 9.58984 62.6289 9.58984C63.1823 9.58984 63.6266 9.46777 63.9619 9.22363C64.2972 8.97949 64.4648 8.6556 64.4648 8.25195Z" fill="#AED2F5"/>
</svg>
