<svg width="55" height="55" viewBox="0 0 55 55" fill="none" xmlns="http://www.w3.org/2000/svg">
<rect width="55" height="55" fill="#202932"/>
<rect x="5.5" y="5.5" width="44" height="46" fill="#202932" stroke="#AED2F5"/>
<rect x="8" y="17" width="39" height="23" fill="#AED2F5"/>
<rect x="8" y="8" width="2" height="2" fill="#AED2F5"/>
<rect x="12" y="8" width="2" height="2" fill="#AED2F5"/>
<rect x="16" y="8" width="2" height="2" fill="#AED2F5"/>
<rect x="20" y="8" width="2" height="2" fill="#AED2F5"/>
<rect x="24" y="8" width="2" height="2" fill="#AED2F5"/>
<rect x="28" y="8" width="2" height="2" fill="#AED2F5"/>
<rect x="32" y="8" width="2" height="2" fill="#AED2F5"/>
<rect x="36" y="8" width="2" height="2" fill="#AED2F5"/>
<rect x="40" y="8" width="2" height="2" fill="#AED2F5"/>
<rect x="44" y="8" width="2" height="2" fill="#AED2F5"/>
<rect x="9" y="12" width="2" height="2" fill="#AED2F5"/>
<rect x="13" y="12" width="2" height="2" fill="#AED2F5"/>
<rect x="17" y="12" width="2" height="2" fill="#AED2F5"/>
<rect x="21" y="12" width="2" height="2" fill="#AED2F5"/>
<rect x="25" y="12" width="2" height="2" fill="#AED2F5"/>
<rect x="29" y="12" width="2" height="2" fill="#AED2F5"/>
<rect x="33" y="12" width="2" height="2" fill="#AED2F5"/>
<rect x="37" y="12" width="2" height="2" fill="#AED2F5"/>
<rect x="41" y="12" width="2" height="2" fill="#AED2F5"/>
<rect x="45" y="12" width="2" height="2" fill="#AED2F5"/>
<rect x="9" y="43" width="2" height="2" fill="#AED2F5"/>
<rect x="13" y="43" width="2" height="2" fill="#AED2F5"/>
<rect x="17" y="43" width="2" height="2" fill="#AED2F5"/>
<rect x="21" y="43" width="2" height="2" fill="#AED2F5"/>
<rect x="25" y="43" width="2" height="2" fill="#AED2F5"/>
<rect x="29" y="43" width="2" height="2" fill="#AED2F5"/>
<rect x="33" y="43" width="2" height="2" fill="#AED2F5"/>
<rect x="37" y="43" width="2" height="2" fill="#AED2F5"/>
<rect x="41" y="43" width="2" height="2" fill="#AED2F5"/>
<rect x="45" y="43" width="2" height="2" fill="#AED2F5"/>
<rect x="8" y="47" width="2" height="2" fill="#AED2F5"/>
<rect x="12" y="47" width="2" height="2" fill="#AED2F5"/>
<rect x="16" y="47" width="2" height="2" fill="#AED2F5"/>
<rect x="20" y="47" width="2" height="2" fill="#AED2F5"/>
<rect x="24" y="47" width="2" height="2" fill="#AED2F5"/>
<rect x="28" y="47" width="2" height="2" fill="#AED2F5"/>
<rect x="32" y="47" width="2" height="2" fill="#AED2F5"/>
<rect x="36" y="47" width="2" height="2" fill="#AED2F5"/>
<rect x="40" y="47" width="2" height="2" fill="#AED2F5"/>
<rect x="44" y="47" width="2" height="2" fill="#AED2F5"/>
<path d="M21.4521 23.4116L19.9492 23.4116V26H19.1011V19.6016L21.2192 19.6016C21.9399 19.6016 22.4937 19.7656 22.8804 20.0937C23.27 20.4219 23.4648 20.8994 23.4648 21.5264C23.4648 21.9248 23.3564 22.272 23.1396 22.5679C22.9258 22.8638 22.627 23.085 22.2432 23.2314L23.7461 25.9473V26L22.8408 26L21.4521 23.4116ZM19.9492 22.7217L21.2456 22.7217C21.6646 22.7217 21.9971 22.6133 22.2432 22.3965C22.4922 22.1797 22.6167 21.8896 22.6167 21.5264C22.6167 21.1309 22.498 20.8276 22.2607 20.6167C22.0264 20.4058 21.6865 20.2988 21.2412 20.2959H19.9492V22.7217ZM28.1846 24.3301H25.5039L24.9019 26H24.0317L26.4751 19.6016H27.2134L29.6611 26H28.7954L28.1846 24.3301ZM25.7588 23.6357H27.9341L26.8442 20.6431L25.7588 23.6357ZM31.6123 19.6016L33.7041 24.8223L35.7959 19.6016H36.8901V26H36.0464V23.5083L36.1255 20.8188L34.0249 26H33.3789L31.2827 20.832L31.3662 23.5083V26H30.5225V19.6016H31.6123ZM22.8979 32.2715C22.8979 32.5908 22.813 32.875 22.6431 33.124C22.4761 33.373 22.249 33.5679 21.9619 33.7085C22.2959 33.8521 22.5596 34.0615 22.7529 34.3369C22.9492 34.6123 23.0474 34.9243 23.0474 35.2729C23.0474 35.8267 22.8599 36.2676 22.4849 36.5957C22.1128 36.9238 21.6221 37.0879 21.0127 37.0879C20.3975 37.0879 19.9038 36.9238 19.5317 36.5957C19.1626 36.2646 18.978 35.8237 18.978 35.2729C18.978 34.9272 19.0718 34.6152 19.2593 34.3369C19.4497 34.0586 19.7119 33.8477 20.0459 33.7041C19.7617 33.5635 19.5376 33.3687 19.3735 33.1196C19.2095 32.8706 19.1274 32.5879 19.1274 32.2715C19.1274 31.7324 19.3003 31.3047 19.646 30.9883C19.9917 30.6719 20.4473 30.5137 21.0127 30.5137C21.5752 30.5137 22.0293 30.6719 22.375 30.9883C22.7236 31.3047 22.8979 31.7324 22.8979 32.2715ZM22.2344 35.2554C22.2344 34.8979 22.1201 34.6064 21.8916 34.3809C21.666 34.1553 21.3701 34.0425 21.0039 34.0425C20.6377 34.0425 20.3433 34.1538 20.1206 34.3765C19.9009 34.5991 19.791 34.8921 19.791 35.2554C19.791 35.6187 19.8979 35.9043 20.1118 36.1123C20.3286 36.3203 20.6289 36.4243 21.0127 36.4243C21.3936 36.4243 21.6924 36.3203 21.9092 36.1123C22.126 35.9014 22.2344 35.6157 22.2344 35.2554ZM21.0127 31.1816C20.6934 31.1816 20.4341 31.2812 20.2349 31.4805C20.0386 31.6768 19.9404 31.9448 19.9404 32.2847C19.9404 32.6099 20.0371 32.8735 20.2305 33.0757C20.4268 33.2749 20.6875 33.3745 21.0127 33.3745C21.3379 33.3745 21.5972 33.2749 21.7905 33.0757C21.9868 32.8735 22.085 32.6099 22.085 32.2847C22.085 31.9595 21.9839 31.6943 21.7817 31.4893C21.5796 31.2842 21.3232 31.1816 21.0127 31.1816ZM31.2388 36.1606C31.022 36.4712 30.7188 36.7041 30.3291 36.8594C29.9424 37.0117 29.4912 37.0879 28.9756 37.0879C28.4541 37.0879 27.9912 36.9663 27.5869 36.7231C27.1826 36.4771 26.8691 36.1284 26.6465 35.6772C26.4268 35.2261 26.314 34.7031 26.3081 34.1084V33.5503C26.3081 32.5864 26.5322 31.8394 26.9805 31.3091C27.4316 30.7788 28.0645 30.5137 28.8789 30.5137C29.5469 30.5137 30.0845 30.6851 30.4917 31.0278C30.8989 31.3677 31.1479 31.8511 31.2388 32.478H30.395C30.2368 31.6313 29.7329 31.208 28.8833 31.208C28.3179 31.208 27.8887 31.4072 27.5957 31.8057C27.3057 32.2012 27.1592 32.7754 27.1563 33.5283V34.0513C27.1563 34.769 27.3203 35.3403 27.6484 35.7651C27.9766 36.187 28.4204 36.3979 28.98 36.3979C29.2964 36.3979 29.5732 36.3628 29.8105 36.2925C30.0479 36.2222 30.2441 36.1035 30.3994 35.9365V34.4995H28.9185V33.814H31.2388V36.1606ZM32.6494 37V30.6016L34.7412 30.6016C35.4355 30.6016 35.957 30.7451 36.3057 31.0322C36.6572 31.3193 36.833 31.7441 36.833 32.3066C36.833 32.6055 36.748 32.8706 36.5781 33.1021C36.4082 33.3306 36.1768 33.5078 35.8838 33.6338C36.2295 33.7305 36.502 33.915 36.7012 34.1875C36.9033 34.457 37.0044 34.7793 37.0044 35.1543C37.0044 35.7285 36.8184 36.1797 36.4463 36.5078C36.0742 36.8359 35.5483 37 34.8687 37H32.6494ZM33.4932 34.0073V36.3101H34.8862C35.2788 36.3101 35.5879 36.209 35.8135 36.0068C36.042 35.8018 36.1562 35.5205 36.1562 35.1631C36.1562 34.3926 35.7373 34.0073 34.8994 34.0073H33.4932ZM33.4932 33.3306H34.7676C35.1367 33.3306 35.4312 33.2383 35.6509 33.0537C35.8735 32.8691 35.9849 32.6187 35.9849 32.3022C35.9849 31.9507 35.8823 31.6958 35.6772 31.5376C35.4722 31.3765 35.1602 31.2959 34.7412 31.2959L33.4932 31.2959V33.3306Z" fill="#202932"/>
</svg>
