<svg width="55" height="55" viewBox="0 0 55 55" fill="none" xmlns="http://www.w3.org/2000/svg">
<rect width="55" height="55" fill="#202932"/>
<path d="M42.7292 29.4793C42.7292 37.9707 35.6543 49.9793 26.9271 49.9793C18.1998 49.9793 11.125 37.9707 11.125 29.4793C11.125 20.988 18.1998 11.1147 26.9271 11.1147C35.6543 11.1147 42.7292 20.988 42.7292 29.4793Z" fill="#AED2F5"/>
<path d="M47 49.9792C47 46.3545 44.8402 42.8784 40.9957 40.3154C37.1512 37.7524 31.9369 36.3125 26.5 36.3125C21.0631 36.3125 15.8488 37.7524 12.0043 40.3154C8.15982 42.8784 6 46.3545 6 49.9792L47 49.9792Z" fill="#AED2F5"/>
<path d="M23.2952 28.3231C27.481 30.1865 21.8413 31.1877 19.1089 31.1877C16.3766 31.1877 14.5417 29.1766 14.5417 26.6057C14.9219 24.5304 16.0645 25.1004 18.3478 26.1746C18.3478 26.2474 23.2952 28.3231 23.2952 28.3231Z" fill="#202932"/>
<path d="M29.7048 28.3231C25.519 30.1865 31.1587 31.1877 33.8911 31.1877C36.6234 31.1877 38.4583 29.1766 38.4583 26.6057C38.0781 24.5304 36.9355 25.1004 34.6522 26.1746C34.6522 26.2474 29.7048 28.3231 29.7048 28.3231Z" fill="#202932"/>
<path d="M8.5625 36.3125H26.5V44.8542H11.5521L8.5625 36.3125Z" fill="#AED2F5"/>
<path d="M45.2917 36.3125H26.5001V44.8542H42.1598L45.2917 36.3125Z" fill="#AED2F5"/>
<path d="M26.8699 14.0331C26.7828 14.009 26.6909 14.009 26.6038 14.033L15.6902 17.0388C15.6468 17.0508 15.6051 17.0685 15.5665 17.0917L6.59777 22.4531C6.42842 22.5543 6.33444 22.7457 6.35786 22.9416C6.38127 23.1375 6.5177 23.3013 6.70614 23.3598L26.5884 29.5296C26.6849 29.5596 26.7882 29.5596 26.8848 29.5296L46.767 23.3598C46.9556 23.3012 47.0921 23.1372 47.1154 22.941C47.1386 22.7449 47.0442 22.5535 46.8744 22.4525L37.8598 17.0911C37.8216 17.0683 37.7805 17.0508 37.7375 17.0389L26.8699 14.0331Z" fill="#AED2F5" stroke="#AED2F5" stroke-linejoin="round"/>
<path d="M16.1645 5.9165C15.8986 5.9165 15.6793 6.12457 15.6652 6.39007L14.8965 20.9109C14.8892 21.0479 14.9386 21.1819 15.033 21.2814C15.1274 21.381 15.2586 21.4373 15.3958 21.4373H38.4583C38.5954 21.4373 38.7266 21.381 38.821 21.2814C38.9154 21.1819 38.9648 21.0479 38.9576 20.9109L38.1888 6.39007C38.1747 6.12457 37.9554 5.9165 37.6895 5.9165H30.3437C30.2889 5.9165 30.2345 5.92549 30.1827 5.94312L26.918 7.05312L23.2279 5.93788C23.181 5.92371 23.1323 5.9165 23.0833 5.9165H16.1645Z" fill="#AED2F5" stroke="#AED2F5" stroke-linejoin="round"/>
</svg>
