<svg width="75" height="89" viewBox="0 0 75 89" fill="none" xmlns="http://www.w3.org/2000/svg">
<rect width="69" height="12" fill="#FF4654"/>
<rect y="12" width="75" height="77" fill="#FF4654"/>
<rect x="17.5" y="28.5" width="10" height="44" fill="#FF4654" stroke="#0F1923"/>
<rect x="31.5" y="55.5" width="10" height="17" fill="#FF4654" stroke="#0F1923"/>
<rect x="45.5" y="38.5" width="10" height="34" fill="#FF4654" stroke="#0F1923"/>
<path d="M75 12L69 0V12H75Z" fill="#FF4654"/>
<path d="M15.54 8.25195C15.54 7.85807 15.4017 7.5472 15.125 7.31934C14.8483 7.08822 14.3421 6.87012 13.6064 6.66504C12.8708 6.45671 12.3337 6.23047 11.9951 5.98633C11.5133 5.64128 11.2725 5.1888 11.2725 4.62891C11.2725 4.08529 11.4954 3.64421 11.9414 3.30566C12.3906 2.96387 12.9635 2.79297 13.6602 2.79297C14.1322 2.79297 14.5537 2.88411 14.9248 3.06641C15.2992 3.2487 15.5889 3.5026 15.7939 3.82812C15.999 4.15365 16.1016 4.5166 16.1016 4.91699H15.4961C15.4961 4.43197 15.3301 4.04297 14.998 3.75C14.666 3.45378 14.2201 3.30566 13.6602 3.30566C13.1165 3.30566 12.6836 3.42773 12.3613 3.67188C12.0391 3.91276 11.8779 4.22852 11.8779 4.61914C11.8779 4.98047 12.0228 5.27507 12.3125 5.50293C12.6022 5.73079 13.0661 5.93262 13.7041 6.1084C14.3421 6.28092 14.8255 6.46159 15.1543 6.65039C15.4831 6.83594 15.7305 7.05892 15.8965 7.31934C16.0625 7.57975 16.1455 7.88737 16.1455 8.24219C16.1455 8.80208 15.9209 9.2513 15.4717 9.58984C15.0257 9.92839 14.4365 10.0977 13.7041 10.0977C13.2028 10.0977 12.7422 10.0081 12.3223 9.8291C11.9056 9.65007 11.5882 9.39941 11.3701 9.07715C11.1553 8.75488 11.0479 8.38542 11.0479 7.96875H11.6484C11.6484 8.47005 11.8356 8.86556 12.21 9.15527C12.5843 9.44499 13.0824 9.58984 13.7041 9.58984C14.2575 9.58984 14.7018 9.46777 15.0371 9.22363C15.3724 8.97949 15.54 8.6556 15.54 8.25195ZM22.2686 3.40332H19.832V10H19.2314V3.40332H16.7998V2.89062H22.2686V3.40332ZM26.8682 8.00781H23.6406L22.9082 10H22.2783L24.9688 2.89062H25.54L28.2305 10H27.6055L26.8682 8.00781ZM23.8262 7.49512H26.6777L25.252 3.62305L23.8262 7.49512ZM33.4697 3.40332H31.0332V10H30.4326V3.40332H28.001V2.89062H33.4697V3.40332ZM35.3545 10H34.7539V2.89062H35.3545V10ZM41.3115 8.25195C41.3115 7.85807 41.1732 7.5472 40.8965 7.31934C40.6198 7.08822 40.1136 6.87012 39.3779 6.66504C38.6423 6.45671 38.1051 6.23047 37.7666 5.98633C37.2848 5.64128 37.0439 5.1888 37.0439 4.62891C37.0439 4.08529 37.2669 3.64421 37.7129 3.30566C38.1621 2.96387 38.735 2.79297 39.4316 2.79297C39.9036 2.79297 40.3252 2.88411 40.6963 3.06641C41.0706 3.2487 41.3604 3.5026 41.5654 3.82812C41.7705 4.15365 41.873 4.5166 41.873 4.91699H41.2676C41.2676 4.43197 41.1016 4.04297 40.7695 3.75C40.4375 3.45378 39.9915 3.30566 39.4316 3.30566C38.888 3.30566 38.4551 3.42773 38.1328 3.67188C37.8105 3.91276 37.6494 4.22852 37.6494 4.61914C37.6494 4.98047 37.7943 5.27507 38.084 5.50293C38.3737 5.73079 38.8376 5.93262 39.4756 6.1084C40.1136 6.28092 40.597 6.46159 40.9258 6.65039C41.2546 6.83594 41.502 7.05892 41.668 7.31934C41.834 7.57975 41.917 7.88737 41.917 8.24219C41.917 8.80208 41.6924 9.2513 41.2432 9.58984C40.7972 9.92839 40.208 10.0977 39.4756 10.0977C38.9743 10.0977 38.5137 10.0081 38.0938 9.8291C37.6771 9.65007 37.3597 9.39941 37.1416 9.07715C36.9268 8.75488 36.8193 8.38542 36.8193 7.96875H37.4199C37.4199 8.47005 37.6071 8.86556 37.9814 9.15527C38.3558 9.44499 38.8538 9.58984 39.4756 9.58984C40.029 9.58984 40.4733 9.46777 40.8086 9.22363C41.1439 8.97949 41.3115 8.6556 41.3115 8.25195ZM48.04 3.40332H45.6035V10H45.0029V3.40332H42.5713V2.89062H48.04V3.40332ZM49.9248 10H49.3242V2.89062H49.9248V10ZM56.8926 7.7832C56.8112 8.5319 56.5426 9.10482 56.0869 9.50195C55.6344 9.89909 55.0306 10.0977 54.2754 10.0977C53.748 10.0977 53.2809 9.96582 52.874 9.70215C52.4704 9.43848 52.1579 9.06576 51.9365 8.58398C51.7152 8.09896 51.6029 7.54557 51.5996 6.92383V6.00098C51.5996 5.36947 51.7103 4.80957 51.9316 4.32129C52.153 3.83301 52.4704 3.45703 52.8838 3.19336C53.3005 2.92643 53.779 2.79297 54.3193 2.79297C55.0811 2.79297 55.6816 2.99967 56.1211 3.41309C56.5638 3.82324 56.821 4.39128 56.8926 5.11719H56.2871C56.1374 3.90951 55.4814 3.30566 54.3193 3.30566C53.6748 3.30566 53.1605 3.54655 52.7764 4.02832C52.3955 4.51009 52.2051 5.17578 52.2051 6.02539V6.89453C52.2051 7.71484 52.3906 8.36914 52.7617 8.85742C53.1361 9.3457 53.6406 9.58984 54.2754 9.58984C54.9036 9.58984 55.3773 9.4401 55.6963 9.14062C56.0153 8.83789 56.2122 8.38542 56.2871 7.7832H56.8926ZM62.376 8.25195C62.376 7.85807 62.2376 7.5472 61.9609 7.31934C61.6842 7.08822 61.1781 6.87012 60.4424 6.66504C59.7067 6.45671 59.1696 6.23047 58.8311 5.98633C58.3493 5.64128 58.1084 5.1888 58.1084 4.62891C58.1084 4.08529 58.3314 3.64421 58.7773 3.30566C59.2266 2.96387 59.7995 2.79297 60.4961 2.79297C60.9681 2.79297 61.3896 2.88411 61.7607 3.06641C62.1351 3.2487 62.4248 3.5026 62.6299 3.82812C62.835 4.15365 62.9375 4.5166 62.9375 4.91699H62.332C62.332 4.43197 62.166 4.04297 61.834 3.75C61.502 3.45378 61.056 3.30566 60.4961 3.30566C59.9525 3.30566 59.5195 3.42773 59.1973 3.67188C58.875 3.91276 58.7139 4.22852 58.7139 4.61914C58.7139 4.98047 58.8587 5.27507 59.1484 5.50293C59.4382 5.73079 59.902 5.93262 60.54 6.1084C61.1781 6.28092 61.6615 6.46159 61.9902 6.65039C62.319 6.83594 62.5664 7.05892 62.7324 7.31934C62.8984 7.57975 62.9814 7.88737 62.9814 8.24219C62.9814 8.80208 62.7568 9.2513 62.3076 9.58984C61.8617 9.92839 61.2725 10.0977 60.54 10.0977C60.0387 10.0977 59.5781 10.0081 59.1582 9.8291C58.7415 9.65007 58.4242 9.39941 58.2061 9.07715C57.9912 8.75488 57.8838 8.38542 57.8838 7.96875H58.4844C58.4844 8.47005 58.6715 8.86556 59.0459 9.15527C59.4202 9.44499 59.9183 9.58984 60.54 9.58984C61.0934 9.58984 61.5378 9.46777 61.873 9.22363C62.2083 8.97949 62.376 8.6556 62.376 8.25195Z" fill="#AED2F5"/>
</svg>
