<svg width="75" height="77" viewBox="0 0 75 77" fill="none" xmlns="http://www.w3.org/2000/svg">
<rect width="75" height="77" fill="#0F1923"/>
<rect width="75" height="77" fill="#0F1923"/>
<rect x="25.5" y="19.5" width="25" height="19" rx="9.5" fill="#0F1923" stroke="#AED2F5"/>
<rect x="13.5" y="29.1" width="49" height="29.4" rx="1.5" fill="#0F1923" stroke="#AED2F5"/>
<rect x="28.5" y="34.5" width="19" height="19" rx="9.5" fill="#0F1923" stroke="#AED2F5"/>
<path d="M34.9648 49V39.0469H37.9043C38.9707 39.0469 39.7796 39.2679 40.3311 39.71C40.8825 40.1475 41.1582 40.7946 41.1582 41.6514C41.1582 42.1663 41.0169 42.6152 40.7344 42.998C40.4564 43.3763 40.0736 43.6475 39.5859 43.8115C40.1647 43.9391 40.6296 44.224 40.9805 44.666C41.3359 45.1081 41.5137 45.6185 41.5137 46.1973C41.5137 47.0768 41.2288 47.765 40.6592 48.2617C40.0941 48.7539 39.3057 49 38.2939 49H34.9648ZM35.8057 44.2148V48.2891H38.3281C39.0482 48.2891 39.6178 48.1068 40.0371 47.7422C40.4609 47.373 40.6729 46.8626 40.6729 46.2109C40.6729 45.5957 40.4701 45.1104 40.0645 44.7549C39.6634 44.3949 39.1074 44.2148 38.3965 44.2148H35.8057ZM35.8057 43.5107H38.1025C38.8044 43.4971 39.3467 43.333 39.7295 43.0186C40.1169 42.6995 40.3105 42.237 40.3105 41.6309C40.3105 40.9928 40.11 40.5234 39.709 40.2227C39.3125 39.9173 38.7109 39.7646 37.9043 39.7646H35.8057V43.5107Z" fill="#AED2F5"/>
</svg>
