<svg width="75" height="89" viewBox="0 0 75 89" fill="none" xmlns="http://www.w3.org/2000/svg">
<rect width="69" height="12" fill="#FF4654"/>
<path d="M75 12L69 0V12H75Z" fill="#FF4654"/>
<path d="M27.6338 8.25195C27.6338 7.85807 27.4954 7.5472 27.2188 7.31934C26.9421 7.08822 26.4359 6.87012 25.7002 6.66504C24.9645 6.45671 24.4274 6.23047 24.0889 5.98633C23.6071 5.64128 23.3662 5.1888 23.3662 4.62891C23.3662 4.08529 23.5892 3.64421 24.0352 3.30566C24.4844 2.96387 25.0573 2.79297 25.7539 2.79297C26.2259 2.79297 26.6475 2.88411 27.0186 3.06641C27.3929 3.2487 27.6826 3.5026 27.8877 3.82812C28.0928 4.15365 28.1953 4.5166 28.1953 4.91699H27.5898C27.5898 4.43197 27.4238 4.04297 27.0918 3.75C26.7598 3.45378 26.3138 3.30566 25.7539 3.30566C25.2103 3.30566 24.7773 3.42773 24.4551 3.67188C24.1328 3.91276 23.9717 4.22852 23.9717 4.61914C23.9717 4.98047 24.1165 5.27507 24.4062 5.50293C24.696 5.73079 25.1598 5.93262 25.7979 6.1084C26.4359 6.28092 26.9193 6.46159 27.248 6.65039C27.5768 6.83594 27.8242 7.05892 27.9902 7.31934C28.1562 7.57975 28.2393 7.88737 28.2393 8.24219C28.2393 8.80208 28.0146 9.2513 27.5654 9.58984C27.1195 9.92839 26.5303 10.0977 25.7979 10.0977C25.2965 10.0977 24.8359 10.0081 24.416 9.8291C23.9993 9.65007 23.682 9.39941 23.4639 9.07715C23.249 8.75488 23.1416 8.38542 23.1416 7.96875H23.7422C23.7422 8.47005 23.9294 8.86556 24.3037 9.15527C24.6781 9.44499 25.1761 9.58984 25.7979 9.58984C26.3512 9.58984 26.7956 9.46777 27.1309 9.22363C27.4661 8.97949 27.6338 8.6556 27.6338 8.25195ZM34.3623 3.40332H31.9258V10H31.3252V3.40332H28.8936V2.89062H34.3623V3.40332ZM40.6318 6.83105C40.6318 7.48535 40.5179 8.0599 40.29 8.55469C40.0654 9.04948 39.7432 9.43034 39.3232 9.69727C38.9033 9.96419 38.4183 10.0977 37.8682 10.0977C37.0381 10.0977 36.3675 9.80143 35.8564 9.20898C35.3454 8.61328 35.0898 7.81087 35.0898 6.80176V6.06934C35.0898 5.42155 35.2038 4.84863 35.4316 4.35059C35.6628 3.84928 35.9883 3.46517 36.4082 3.19824C36.8281 2.92806 37.3115 2.79297 37.8584 2.79297C38.4053 2.79297 38.887 2.9248 39.3037 3.18848C39.7236 3.45215 40.0475 3.82487 40.2754 4.30664C40.5033 4.78841 40.6221 5.34668 40.6318 5.98145V6.83105ZM40.0312 6.05957C40.0312 5.20345 39.8376 4.53288 39.4502 4.04785C39.0628 3.56283 38.5322 3.32031 37.8584 3.32031C37.1976 3.32031 36.6702 3.56445 36.2764 4.05273C35.8857 4.53776 35.6904 5.21647 35.6904 6.08887V6.83105C35.6904 7.67415 35.8857 8.3431 36.2764 8.83789C36.667 9.32943 37.1976 9.5752 37.8682 9.5752C38.5485 9.5752 39.0791 9.33268 39.46 8.84766C39.8408 8.35938 40.0312 7.68066 40.0312 6.81152V6.05957ZM44.8018 7.04102H42.7363V10H42.1309V2.89062H44.4404C45.1989 2.89062 45.7913 3.07454 46.2178 3.44238C46.6442 3.81022 46.8574 4.32454 46.8574 4.98535C46.8574 5.44108 46.724 5.8431 46.457 6.19141C46.1901 6.53971 45.832 6.7806 45.3828 6.91406L47.1602 9.93652V10H46.5205L44.8018 7.04102ZM42.7363 6.52832H44.5771C45.0817 6.52832 45.487 6.38509 45.793 6.09863C46.099 5.81217 46.252 5.44108 46.252 4.98535C46.252 4.48405 46.0924 4.09505 45.7734 3.81836C45.4544 3.54167 45.0068 3.40332 44.4307 3.40332H42.7363V6.52832ZM52.4189 6.5918H49.0938V9.49219H52.917V10H48.4932V2.89062H52.8926V3.40332H49.0938V6.08398H52.4189V6.5918Z" fill="#AED2F5"/>
<rect y="12" width="75" height="77" fill="#FF4654"/>
<rect x="25.5" y="31.5" width="25" height="19" rx="9.5" fill="#FF4654" stroke="#0F1923"/>
<rect x="13.5" y="41.1" width="49" height="29.4" rx="1.5" fill="#FF4654" stroke="#0F1923"/>
<rect x="28.5" y="46.5" width="19" height="19" rx="9.5" fill="#FF4654" stroke="#0F1923"/>
<path d="M34.9648 61V51.0469H37.9043C38.9707 51.0469 39.7796 51.2679 40.3311 51.71C40.8825 52.1475 41.1582 52.7946 41.1582 53.6514C41.1582 54.1663 41.0169 54.6152 40.7344 54.998C40.4564 55.3763 40.0736 55.6475 39.5859 55.8115C40.1647 55.9391 40.6296 56.224 40.9805 56.666C41.3359 57.1081 41.5137 57.6185 41.5137 58.1973C41.5137 59.0768 41.2288 59.765 40.6592 60.2617C40.0941 60.7539 39.3057 61 38.2939 61H34.9648ZM35.8057 56.2148V60.2891H38.3281C39.0482 60.2891 39.6178 60.1068 40.0371 59.7422C40.4609 59.373 40.6729 58.8626 40.6729 58.2109C40.6729 57.5957 40.4701 57.1104 40.0645 56.7549C39.6634 56.3949 39.1074 56.2148 38.3965 56.2148H35.8057ZM35.8057 55.5107H38.1025C38.8044 55.4971 39.3467 55.333 39.7295 55.0186C40.1169 54.6995 40.3105 54.237 40.3105 53.6309C40.3105 52.9928 40.11 52.5234 39.709 52.2227C39.3125 51.9173 38.7109 51.7646 37.9043 51.7646H35.8057V55.5107Z" fill="#0F1923"/>
</svg>
