 <svg width="310" height="19" viewBox="0 0 310 19" fill="none" xmlns="http://www.w3.org/2000/svg">
<rect width="9.09337" height="310" transform="matrix(-1.31134e-07 -1 -1 1.31134e-07 310 18.1868)" fill="#0F1923"/>
<rect x="103.333" y="18.1868" width="9.09334" height="52.08" transform="rotate(-90 103.333 18.1868)" fill="#FF4654"/>
<rect y="9.09326" width="9.09337" height="155.413" transform="rotate(-90 0 9.09326)" fill="#FF4654"/>
<rect x="95.0667" y="13.2266" width="4.13333" height="8.26667" transform="rotate(-90 95.0667 13.2266)" fill="#FF4654"/>
<path d="M95.0667 14.0535L85.1467 9.09347L95.0667 9.09347L95.0667 14.0535Z" fill="#FF4654"/>
<path d="M103.333 18.1868L93.4133 13.2268L103.333 13.2268L103.333 18.1868Z" fill="#FF4654"/>
<rect width="9.09334" height="52.08" transform="matrix(-4.37114e-08 -1 -1 4.37114e-08 207.493 18.1868)" fill="#FF4654"/>
<path d="M310 9.09327L310 -2.6226e-05L155.413 -7.15011e-05L155.413 9.09323L310 9.09327Z" fill="#FF4654"/>
<rect width="4.13333" height="8.26667" transform="matrix(-4.37114e-08 -1 -1 4.37114e-08 215.76 13.2266)" fill="#FF4654"/>
<path d="M215.76 14.0535L225.68 9.09347L215.76 9.09347L215.76 14.0535Z" fill="#FF4654"/>
<path d="M207.493 18.1868L217.413 13.2268L207.493 13.2268L207.493 18.1868Z" fill="#FF4654"/>
</svg>
