<svg width="32" height="14" viewBox="0 0 32 14" fill="none" xmlns="http://www.w3.org/2000/svg">
<rect x="0.5" y="0.5" width="31" height="12" rx="2.5" fill="#0F1923" stroke="#AED2F5"/>
<path d="M9.27637 8.75488L11.3076 2.89062H12.333L9.69629 10H8.86621L6.23438 2.89062H7.25488L9.27637 8.75488ZM14.2275 7.2168V10H13.29V2.89062H15.9121C16.6901 2.89062 17.2988 3.08919 17.7383 3.48633C18.181 3.88346 18.4023 4.40918 18.4023 5.06348C18.4023 5.75358 18.1859 6.28581 17.7529 6.66016C17.3232 7.03125 16.7064 7.2168 15.9023 7.2168H14.2275ZM14.2275 6.4502H15.9121C16.4134 6.4502 16.7975 6.33301 17.0645 6.09863C17.3314 5.861 17.4648 5.51921 17.4648 5.07324C17.4648 4.65007 17.3314 4.31152 17.0645 4.05762C16.7975 3.80371 16.4313 3.67188 15.9658 3.66211H14.2275V6.4502ZM25.0625 10H24.1201L20.541 4.52148V10H19.5986V2.89062H20.541L24.1299 8.39355V2.89062H25.0625V10Z" fill="#AED2F5"/>
</svg>
